<svg width="843" height="842" viewBox="0 0 843 842" fill="none" xmlns="http://www.w3.org/2000/svg">
<g id="thingsText">
<path id="c" d="M421.813 138.67C422.78 138.67 423.625 138.377 424.347 137.791C425.07 137.205 425.47 136.473 425.549 135.594H428.112C428.063 136.502 427.751 137.366 427.175 138.187C426.598 139.007 425.827 139.661 424.86 140.149C423.903 140.638 422.887 140.882 421.813 140.882C419.655 140.882 417.936 140.164 416.657 138.729C415.387 137.283 414.753 135.311 414.753 132.811V132.356C414.753 130.814 415.036 129.441 415.602 128.24C416.169 127.039 416.979 126.106 418.034 125.442C419.098 124.778 420.353 124.446 421.799 124.446C423.576 124.446 425.051 124.979 426.222 126.043C427.404 127.107 428.034 128.489 428.112 130.189H425.549C425.47 129.163 425.08 128.323 424.377 127.669C423.683 127.005 422.824 126.673 421.799 126.673C420.422 126.673 419.352 127.171 418.591 128.167C417.839 129.153 417.463 130.584 417.463 132.459V132.972C417.463 134.798 417.839 136.204 418.591 137.19C419.343 138.177 420.417 138.67 421.813 138.67Z" fill="black"/>
<path id="h" d="M460.783 129.324C462.178 128.031 463.828 127.518 465.733 127.786C469.05 128.252 470.46 130.359 469.963 134.105L468.505 144.477L465.822 144.1L467.281 133.714C467.431 132.581 467.287 131.708 466.851 131.094C466.424 130.482 465.674 130.1 464.6 129.949C463.73 129.827 462.933 129.952 462.211 130.324C461.488 130.695 460.89 131.233 460.416 131.935L458.844 143.119L456.161 142.742L459.292 120.461L461.976 120.838L460.783 129.324Z" fill="black"/>
<path id="a" d="M504.001 153.03C503.937 152.686 503.968 152.116 504.095 151.32C502.523 152.23 500.897 152.445 499.217 151.963C497.715 151.532 496.602 150.756 495.877 149.634C495.164 148.505 494.995 147.288 495.369 145.983C495.824 144.397 496.778 143.339 498.23 142.811C499.694 142.276 501.519 142.322 503.706 142.949L506.241 143.676L506.584 142.479C506.845 141.568 506.78 140.767 506.389 140.076C506.001 139.375 505.276 138.873 504.216 138.569C503.286 138.302 502.44 138.314 501.676 138.603C500.913 138.892 500.435 139.369 500.244 140.036L497.625 139.285C497.843 138.525 498.321 137.869 499.058 137.318C499.807 136.761 500.701 136.408 501.739 136.259C502.787 136.112 503.864 136.198 504.972 136.515C506.728 137.019 507.976 137.854 508.718 139.022C509.463 140.18 509.633 141.534 509.23 143.085L507.219 150.097C506.818 151.496 506.677 152.659 506.797 153.588L506.732 153.813L504.001 153.03ZM500.247 149.805C501.064 150.039 501.899 150.05 502.752 149.837C503.606 149.625 504.293 149.228 504.816 148.646L505.712 145.52L503.67 144.935C500.479 144.019 498.615 144.496 498.079 146.364C497.845 147.181 497.934 147.897 498.347 148.513C498.759 149.129 499.393 149.56 500.247 149.805Z" fill="black"/>
<path id="n" d="M540.181 149.685L539.451 151.541C541.177 150.642 542.932 150.59 544.716 151.384C547.776 152.746 548.551 155.16 547.041 158.624L542.781 168.192L540.305 167.09L544.571 157.509C545.027 156.461 545.129 155.582 544.879 154.872C544.638 154.166 544.022 153.592 543.031 153.151C542.228 152.794 541.428 152.694 540.631 152.852C539.834 153.01 539.111 153.362 538.462 153.907L533.868 164.224L531.392 163.122L537.839 148.643L540.181 149.685Z" fill="black"/>
<path id="g" d="M569.758 173.705C571.067 171.609 572.592 170.247 574.332 169.619C576.077 168.982 577.749 169.163 579.347 170.162C580.987 171.187 581.904 172.566 582.099 174.3L583.142 172.879L585.242 174.191L577.045 187.309C575.958 189.048 574.584 190.095 572.922 190.45C571.269 190.811 569.573 190.448 567.834 189.361C566.865 188.755 566.046 187.956 565.377 186.962C564.709 185.969 564.355 184.959 564.317 183.933L566.371 183.299C566.596 185.132 567.42 186.494 568.845 187.384C569.963 188.083 571.029 188.312 572.043 188.07C573.066 187.834 573.935 187.145 574.649 186.002L575.371 184.846C573.789 185.332 572.203 185.078 570.613 184.084C569.039 183.101 568.16 181.671 567.974 179.793C567.797 177.92 568.392 175.891 569.758 173.705ZM571.906 175.409C570.959 176.925 570.524 178.311 570.602 179.569C570.685 180.819 571.285 181.793 572.403 182.491C573.852 183.397 575.328 183.403 576.83 182.511L580.665 176.374C580.763 174.651 580.108 173.349 578.7 172.469C577.582 171.771 576.437 171.66 575.264 172.136C574.091 172.612 572.972 173.703 571.906 175.409Z" fill="black"/>
<path id="e" d="M601.594 206.765C599.948 205.384 599.061 203.721 598.933 201.778C598.81 199.827 599.509 197.946 601.028 196.136L601.348 195.754C602.359 194.55 603.488 193.668 604.735 193.108C605.996 192.547 607.261 192.346 608.529 192.506C609.812 192.664 610.935 193.148 611.9 193.958C613.479 195.282 614.27 196.831 614.272 198.606C614.275 200.38 613.463 202.236 611.838 204.174L611.113 205.038L602.887 198.136C601.913 199.358 601.448 200.618 601.492 201.918C601.55 203.216 602.096 204.298 603.128 205.164C603.861 205.779 604.608 206.151 605.367 206.278C606.127 206.406 606.905 206.383 607.701 206.209L608.14 208.261C605.811 208.971 603.629 208.472 601.594 206.765ZM610.469 195.663C609.631 194.96 608.671 194.677 607.588 194.813C606.511 194.942 605.443 195.5 604.386 196.487L610.468 201.59L610.6 201.433C611.425 200.328 611.825 199.274 611.8 198.271C611.78 197.261 611.337 196.391 610.469 195.663Z" fill="black"/>
<path id="t" d="M670.205 253.706L667.023 255.852L668.678 258.305L666.941 259.476L665.287 257.023L657.138 262.52C656.612 262.875 656.289 263.251 656.169 263.65C656.057 264.044 656.179 264.503 656.534 265.03C656.709 265.289 656.997 265.612 657.4 266L655.579 267.229C655.018 266.747 654.55 266.227 654.173 265.668C653.496 264.664 653.289 263.702 653.552 262.783C653.815 261.863 654.505 261.027 655.622 260.273L663.771 254.777L662.157 252.384L663.894 251.213L665.508 253.605L668.69 251.459L670.205 253.706Z" fill="black"/>
<path id="h_2" d="M684.866 290.505C686.718 290.938 688.066 292.019 688.909 293.748C690.378 296.759 689.42 299.105 686.036 300.788L676.622 305.38L675.434 302.944L684.861 298.346C685.884 297.837 686.527 297.229 686.792 296.525C687.061 295.828 686.958 294.993 686.483 294.019C686.097 293.229 685.548 292.638 684.836 292.247C684.124 291.855 683.344 291.66 682.496 291.66L672.346 296.611L671.158 294.176L691.38 284.312L692.568 286.748L684.866 290.505Z" fill="black"/>
<path id="e_2" d="M687.525 334.827C686.861 332.783 686.99 330.904 687.911 329.187C688.841 327.468 690.43 326.243 692.677 325.513L693.151 325.359C694.646 324.873 696.071 324.724 697.426 324.91C698.792 325.102 699.971 325.602 700.963 326.41C701.966 327.223 702.663 328.229 703.052 329.427C703.689 331.387 703.538 333.12 702.6 334.626C701.662 336.132 699.991 337.276 697.585 338.058L696.512 338.406L693.194 328.195C691.72 328.714 690.658 329.537 690.007 330.663C689.369 331.794 689.257 333.001 689.674 334.283C689.97 335.193 690.406 335.903 690.983 336.414C691.559 336.925 692.231 337.318 692.998 337.592L692.283 339.565C689.932 338.932 688.346 337.353 687.525 334.827ZM700.934 330.115C700.596 329.075 699.932 328.326 698.941 327.868C697.959 327.406 696.759 327.314 695.339 327.59L697.793 335.141L697.988 335.078C699.273 334.578 700.171 333.896 700.681 333.032C701.2 332.165 701.284 331.193 700.934 330.115Z" fill="black"/>
<path id="t_2" d="M720.835 410.993L717 411.127L717.103 414.084L715.009 414.158L714.906 411.2L705.083 411.543C704.449 411.566 703.975 411.714 703.662 411.989C703.359 412.263 703.219 412.718 703.241 413.352C703.252 413.664 703.325 414.092 703.461 414.634L701.266 414.711C701.045 414.005 700.924 413.316 700.9 412.642C700.858 411.432 701.192 410.507 701.902 409.866C702.613 409.226 703.642 408.882 704.988 408.835L714.812 408.492L714.711 405.608L716.804 405.535L716.905 408.419L720.741 408.285L720.835 410.993Z" fill="black"/>
<path id="h_3" d="M713.768 449.97C715.109 451.319 715.679 452.95 715.478 454.863C715.128 458.194 713.072 459.677 709.31 459.311L698.894 458.216L699.178 455.521L709.608 456.617C710.746 456.727 711.613 456.553 712.211 456.095C712.808 455.648 713.163 454.885 713.277 453.807C713.369 452.933 713.216 452.141 712.819 451.431C712.423 450.722 711.865 450.143 711.146 449.694L699.914 448.514L700.197 445.819L722.574 448.17L722.291 450.866L713.768 449.97Z" fill="black"/>
<path id="i" d="M692.657 489.691L693.313 487.061L708.692 490.896L708.036 493.525L692.657 489.691ZM712.824 491.699C713.25 491.806 713.578 492.023 713.808 492.353C714.036 492.691 714.086 493.116 713.958 493.628C713.831 494.14 713.587 494.491 713.227 494.684C712.867 494.876 712.474 494.919 712.048 494.812C711.621 494.706 711.299 494.485 711.081 494.148C710.863 493.812 710.818 493.388 710.945 492.877C711.073 492.365 711.312 492.012 711.662 491.817C712.01 491.632 712.398 491.593 712.824 491.699Z" fill="black"/>
<path id="n_2" d="M696.19 530.03L694.31 529.365C695.269 531.059 695.383 532.811 694.651 534.622C693.396 537.727 691.012 538.586 687.496 537.197L677.786 533.274L678.801 530.761L688.525 534.69C689.588 535.109 690.47 535.181 691.171 534.906C691.868 534.64 692.42 534.005 692.826 533C693.155 532.185 693.227 531.382 693.041 530.59C692.855 529.799 692.479 529.089 691.912 528.459L681.44 524.228L682.455 521.716L697.151 527.653L696.19 530.03Z" fill="black"/>
<path id="g_2" d="M673.218 560.427C675.358 561.663 676.772 563.139 677.461 564.856C678.158 566.578 678.036 568.255 677.093 569.887C676.127 571.562 674.78 572.526 673.054 572.782L674.511 573.775L673.273 575.919L659.877 568.184C658.1 567.159 657.006 565.822 656.593 564.174C656.175 562.535 656.479 560.827 657.504 559.051C658.076 558.061 658.846 557.215 659.816 556.512C660.786 555.809 661.782 555.42 662.806 555.346L663.511 557.377C661.687 557.666 660.355 558.537 659.515 559.992C658.856 561.134 658.665 562.207 658.941 563.213C659.213 564.226 659.932 565.07 661.099 565.744L662.279 566.425C661.739 564.861 661.937 563.268 662.875 561.644C663.802 560.037 665.201 559.108 667.071 558.857C668.937 558.615 670.986 559.138 673.218 560.427ZM671.59 562.633C670.042 561.739 668.641 561.353 667.387 561.475C666.141 561.602 665.188 562.236 664.529 563.377C663.675 564.857 663.72 566.332 664.664 567.802L670.931 571.42C672.657 571.458 673.935 570.758 674.765 569.321C675.424 568.179 675.495 567.03 674.978 565.875C674.461 564.719 673.332 563.639 671.59 562.633Z" fill="black"/>
<path id="s" d="M643.066 598.429C643.643 598.88 644.26 599.009 644.919 598.817C645.578 598.638 646.448 598.097 647.526 597.192C648.599 596.295 649.546 595.654 650.369 595.267C651.185 594.889 651.936 594.72 652.623 594.761C653.304 594.81 653.952 595.074 654.568 595.555C655.591 596.355 656.12 597.462 656.155 598.877C656.184 600.3 655.672 601.685 654.62 603.032C653.513 604.447 652.252 605.309 650.835 605.615C649.413 605.928 648.132 605.64 646.993 604.751L648.671 602.604C649.256 603.06 649.955 603.204 650.769 603.035C651.577 602.873 652.276 602.415 652.865 601.661C653.472 600.883 653.778 600.143 653.782 599.44C653.786 598.737 653.515 598.172 652.969 597.745C652.453 597.342 651.905 597.242 651.325 597.446C650.744 597.649 649.92 598.189 648.852 599.064C647.778 599.948 646.817 600.591 645.969 600.994C645.121 601.398 644.339 601.574 643.623 601.522C642.909 601.485 642.217 601.205 641.547 600.681C640.431 599.81 639.884 598.663 639.904 597.241C639.932 595.825 640.502 594.406 641.614 592.982C642.396 591.982 643.264 591.235 644.219 590.742C645.175 590.249 646.139 590.03 647.113 590.084C648.088 590.152 648.945 590.475 649.684 591.052L648.016 593.187C647.27 592.667 646.478 592.507 645.64 592.707C644.803 592.921 644.042 593.467 643.357 594.344C642.726 595.152 642.382 595.925 642.327 596.662C642.273 597.413 642.519 598.002 643.066 598.429Z" fill="black"/>
<path id="b" d="M583.018 658.84C581.595 656.881 580.9 654.978 580.934 653.13C580.974 651.291 581.752 649.82 583.269 648.718C584.888 647.541 586.557 647.204 588.274 647.707L587.304 646.148L589.319 644.684L602.544 662.887L600.352 664.48L595.418 657.69C595.331 659.431 594.51 660.867 592.953 661.997C591.397 663.128 589.748 663.426 588.008 662.892C586.26 662.364 584.643 661.076 583.156 659.03L583.018 658.84ZM585.392 657.496C586.477 658.99 587.603 659.934 588.771 660.328C589.939 660.723 591.064 660.527 592.146 659.741C593.592 658.69 594.143 657.264 593.799 655.462L589.77 649.915C588.123 649.06 586.588 649.149 585.166 650.183C584.115 650.946 583.593 651.947 583.599 653.185C583.606 654.424 584.203 655.861 585.392 657.496Z" fill="black"/>
<path id="e_3" d="M551.997 667.957C553.894 666.948 555.768 666.748 557.618 667.357C559.473 667.975 560.955 669.327 562.064 671.414L562.298 671.853C563.036 673.242 563.431 674.619 563.483 675.985C563.53 677.364 563.243 678.612 562.62 679.729C561.993 680.858 561.123 681.719 560.011 682.31C558.191 683.278 556.459 683.43 554.813 682.768C553.166 682.106 551.75 680.658 550.562 678.425L550.033 677.429L559.513 672.388C558.745 671.027 557.751 670.124 556.529 669.678C555.304 669.246 554.096 669.346 552.906 669.979C552.061 670.428 551.437 670.981 551.034 671.638C550.632 672.294 550.361 673.024 550.224 673.827L548.158 673.466C548.372 671.04 549.652 669.204 551.997 667.957ZM558.965 680.344C559.931 679.831 560.554 679.046 560.833 677.991C561.117 676.944 561 675.746 560.481 674.396L553.471 678.123L553.567 678.304C554.283 679.483 555.11 680.249 556.049 680.601C556.993 680.962 557.965 680.876 558.965 680.344Z" fill="black"/>
<path id="f" d="M516.785 683.882L521.489 696.808L523.843 695.951L524.559 697.919L522.206 698.776L522.762 700.304C523.343 701.901 523.365 703.29 522.829 704.473C522.293 705.655 521.245 706.53 519.685 707.098C519.098 707.312 518.487 707.446 517.852 707.5L517.238 705.386C517.699 705.311 518.173 705.185 518.659 705.008C519.485 704.708 520.035 704.233 520.307 703.582C520.583 702.942 520.557 702.172 520.23 701.272L519.659 699.703L516.479 700.86L515.763 698.892L518.943 697.735L514.238 684.809L516.785 683.882Z" fill="black"/>
<path id="o" d="M488.223 700.953C488.546 702.472 488.54 703.901 488.206 705.24C487.862 706.581 487.23 707.693 486.31 708.578C485.38 709.464 484.232 710.053 482.866 710.343C480.755 710.792 478.895 710.424 477.285 709.238C475.666 708.055 474.598 706.25 474.082 703.824L474.043 703.638C473.722 702.128 473.725 700.71 474.052 699.383C474.371 698.067 475 696.96 475.937 696.062C476.865 695.166 478.026 694.569 479.42 694.273C481.522 693.826 483.382 694.195 485.002 695.378C486.611 696.563 487.672 698.359 488.184 700.767L488.223 700.953ZM485.491 701.204C485.126 699.485 484.436 698.189 483.422 697.316C482.398 696.445 481.218 696.152 479.88 696.436C478.533 696.723 477.575 697.476 477.006 698.695C476.438 699.924 476.357 701.488 476.761 703.389C477.122 705.09 477.82 706.379 478.856 707.257C479.883 708.147 481.066 708.45 482.403 708.165C483.712 707.887 484.657 707.142 485.238 705.93C485.819 704.719 485.903 703.143 485.491 701.204Z" fill="black"/>
<path id="r" d="M435.015 713.852C435.429 713.891 435.874 713.894 436.352 713.861C438.125 713.737 439.275 712.898 439.803 711.344L439.018 700.121L441.721 699.932L442.827 715.743L440.197 715.927L440.025 714.103C439.237 715.578 438.03 716.372 436.403 716.486C435.877 716.523 435.473 716.482 435.191 716.365L435.015 713.852Z" fill="black"/>
<path id="e_4" d="M401.07 699.658C403.213 699.808 404.908 700.631 406.154 702.128C407.4 703.634 407.94 705.566 407.775 707.924L407.741 708.421C407.631 709.989 407.236 711.366 406.556 712.552C405.865 713.747 404.96 714.653 403.84 715.27C402.71 715.896 401.516 716.165 400.26 716.077C398.204 715.933 396.654 715.144 395.609 713.71C394.563 712.277 394.129 710.298 394.306 707.775L394.384 706.65L405.095 707.399C405.165 705.837 404.801 704.544 404.001 703.519C403.191 702.503 402.114 701.948 400.769 701.854C399.815 701.787 398.993 701.926 398.303 702.269C397.613 702.612 396.997 703.088 396.456 703.696L394.894 702.295C396.362 700.351 398.42 699.472 401.07 699.658ZM400.415 713.856C401.506 713.932 402.45 713.596 403.246 712.849C404.041 712.112 404.577 711.034 404.852 709.614L396.932 709.06L396.918 709.265C396.9 710.644 397.196 711.731 397.806 712.528C398.415 713.334 399.285 713.777 400.415 713.856Z" fill="black"/>
<path id="s_2" d="M320.707 686.528C320.456 687.217 320.524 687.844 320.91 688.411C321.284 688.983 322.067 689.643 323.261 690.389C324.445 691.132 325.348 691.835 325.97 692.497C326.582 693.156 326.975 693.819 327.148 694.485C327.312 695.147 327.261 695.846 326.994 696.58C326.549 697.8 325.66 698.646 324.325 699.116C322.98 699.583 321.505 699.524 319.899 698.939C318.211 698.325 317.002 697.391 316.273 696.139C315.535 694.883 315.413 693.576 315.908 692.218L318.468 693.149C318.214 693.847 318.294 694.557 318.707 695.278C319.11 695.997 319.762 696.52 320.661 696.847C321.588 697.184 322.386 697.246 323.056 697.033C323.726 696.82 324.18 696.387 324.417 695.736C324.641 695.121 324.566 694.569 324.193 694.08C323.821 693.591 323.053 692.974 321.89 692.228C320.718 691.479 319.809 690.764 319.164 690.082C318.518 689.4 318.109 688.711 317.936 688.014C317.751 687.324 317.804 686.579 318.095 685.781C318.579 684.45 319.501 683.575 320.859 683.154C322.214 682.744 323.74 682.847 325.438 683.465C326.631 683.899 327.61 684.494 328.374 685.25C329.138 686.007 329.644 686.856 329.893 687.799C330.13 688.748 330.088 689.662 329.767 690.543L327.221 689.617C327.486 688.746 327.393 687.944 326.944 687.209C326.482 686.479 325.728 685.924 324.682 685.543C323.718 685.193 322.877 685.105 322.159 685.28C321.428 685.461 320.944 685.877 320.707 686.528Z" fill="black"/>
<path id="o_2" d="M292.371 678.416C291.642 679.787 290.719 680.878 289.602 681.689C288.476 682.495 287.277 682.941 286.003 683.027C284.721 683.109 283.464 682.822 282.231 682.166C280.325 681.153 279.137 679.675 278.666 677.732C278.186 675.785 278.528 673.716 279.693 671.526L279.782 671.358C280.506 669.995 281.42 668.911 282.524 668.104C283.614 667.301 284.807 666.857 286.103 666.772C287.389 666.681 288.662 666.971 289.921 667.64C291.818 668.649 293.006 670.127 293.486 672.074C293.957 674.017 293.615 676.075 292.46 678.248L292.371 678.416ZM290.116 676.852C290.941 675.3 291.246 673.864 291.03 672.544C290.806 671.219 290.09 670.235 288.882 669.593C287.667 668.947 286.449 668.908 285.229 669.476C284.004 670.052 282.936 671.199 282.023 672.914C281.207 674.449 280.914 675.886 281.142 677.224C281.358 678.566 282.069 679.558 283.276 680.2C284.457 680.828 285.66 680.865 286.884 680.31C288.108 679.755 289.185 678.603 290.116 676.852Z" fill="black"/>
<path id="m" d="M252.556 663.812L253.53 662.347C251.786 662.77 250.116 662.401 248.52 661.242C246.727 659.939 246.006 658.365 246.356 656.519C245.482 656.826 244.567 656.921 243.613 656.807C242.65 656.687 241.702 656.288 240.77 655.611C237.957 653.567 237.609 651.039 239.726 648.026L245.968 639.434L248.161 641.027L242.013 649.489C241.347 650.405 241.06 651.241 241.151 651.995C241.237 652.758 241.774 653.498 242.762 654.215C243.575 654.806 244.429 655.052 245.322 654.953C246.209 654.861 246.995 654.436 247.679 653.678L253.861 645.169L256.065 646.77L249.96 655.172C248.606 657.037 248.841 658.632 250.666 659.958C252.104 661.003 253.532 661.105 254.951 660.265L261.753 650.903L263.946 652.496L254.63 665.319L252.556 663.812Z" fill="black"/>
<path id="e_5" d="M226.44 621.403C227.985 622.895 228.754 624.615 228.747 626.563C228.733 628.518 227.905 630.345 226.263 632.045L225.917 632.403C224.825 633.534 223.637 634.336 222.354 634.807C221.057 635.278 219.781 635.39 218.527 635.143C217.258 634.896 216.171 634.335 215.265 633.46C213.783 632.028 213.102 630.427 213.223 628.657C213.344 626.887 214.283 625.092 216.04 623.273L216.824 622.462L224.548 629.92C225.605 628.769 226.157 627.544 226.203 626.245C226.236 624.946 225.767 623.828 224.798 622.892C224.109 622.227 223.391 621.805 222.642 621.624C221.893 621.444 221.115 621.413 220.309 621.531L220.014 619.453C222.387 618.908 224.529 619.558 226.44 621.403ZM216.812 631.858C217.598 632.618 218.537 632.967 219.627 632.907C220.71 632.853 221.814 632.371 222.938 631.461L217.226 625.946L217.084 626.093C216.184 627.138 215.711 628.161 215.667 629.164C215.615 630.173 215.997 631.071 216.812 631.858Z" fill="black"/>
<path id="o_3" d="M198.664 603.707C197.44 604.663 196.153 605.284 194.803 605.571C193.447 605.849 192.17 605.769 190.972 605.33C189.767 604.883 188.735 604.109 187.876 603.008C186.547 601.308 186.062 599.474 186.422 597.508C186.776 595.534 187.93 593.783 189.885 592.256L190.035 592.139C191.251 591.189 192.527 590.57 193.863 590.281C195.186 589.992 196.456 590.071 197.674 590.52C198.886 590.961 199.931 591.743 200.809 592.867C202.132 594.56 202.616 596.393 202.262 598.367C201.903 600.334 200.753 602.075 198.814 603.59L198.664 603.707ZM197.24 601.361C198.626 600.279 199.488 599.091 199.828 597.797C200.162 596.495 199.908 595.306 199.066 594.228C198.218 593.143 197.122 592.612 195.776 592.635C194.423 592.663 192.98 593.276 191.449 594.472C190.079 595.543 189.227 596.735 188.891 598.051C188.542 599.365 188.788 600.56 189.63 601.638C190.454 602.692 191.538 603.215 192.881 603.206C194.225 603.197 195.678 602.582 197.24 601.361Z" fill="black"/>
<path id="n_3" d="M165.785 569.934L167.467 568.862C165.542 568.575 164.091 567.586 163.114 565.894C161.44 562.993 162.231 560.585 165.49 558.67L174.56 553.434L175.915 555.781L166.832 561.025C165.847 561.604 165.248 562.255 165.033 562.977C164.813 563.69 164.974 564.516 165.516 565.455C165.956 566.216 166.544 566.767 167.282 567.108C168.02 567.448 168.812 567.589 169.657 567.529L179.438 561.882L180.793 564.229L167.067 572.154L165.785 569.934Z" fill="black"/>
<path id="e_6" d="M161.622 524.806C162.427 526.798 162.43 528.682 161.631 530.459C160.823 532.239 159.323 533.571 157.132 534.457L156.67 534.643C155.213 535.232 153.802 535.481 152.438 535.39C151.061 535.293 149.85 534.876 148.805 534.14C147.747 533.398 146.982 532.444 146.51 531.275C145.738 529.365 145.767 527.626 146.598 526.058C147.428 524.49 149.016 523.232 151.361 522.285L152.407 521.862L156.429 531.818C157.864 531.196 158.866 530.301 159.437 529.133C159.995 527.96 160.022 526.749 159.517 525.499C159.158 524.612 158.673 523.933 158.063 523.464C157.452 522.995 156.754 522.65 155.97 522.429L156.545 520.412C158.935 520.879 160.627 522.343 161.622 524.806ZM148.574 530.441C148.984 531.456 149.699 532.157 150.72 532.545C151.731 532.937 152.935 532.945 154.332 532.57L151.358 525.209L151.168 525.286C149.92 525.874 149.072 526.617 148.624 527.514C148.167 528.415 148.15 529.391 148.574 530.441Z" fill="black"/>
<path id="c_2" d="M140.779 449.554C140.678 448.592 140.298 447.783 139.64 447.125C138.982 446.468 138.211 446.146 137.329 446.16L137.061 443.611C137.97 443.565 138.862 443.785 139.738 444.272C140.614 444.76 141.345 445.458 141.932 446.369C142.518 447.27 142.867 448.254 142.979 449.323C143.204 451.469 142.67 453.253 141.376 454.676C140.072 456.089 138.176 456.927 135.69 457.188L135.238 457.236C133.704 457.397 132.309 457.259 131.056 456.821C129.802 456.383 128.79 455.674 128.019 454.695C127.247 453.706 126.786 452.492 126.635 451.055C126.449 449.287 126.824 447.765 127.76 446.489C128.695 445.202 130.004 444.431 131.686 444.176L131.954 446.725C130.942 446.91 130.148 447.387 129.57 448.154C128.982 448.913 128.742 449.803 128.849 450.822C128.993 452.192 129.6 453.203 130.67 453.857C131.73 454.501 133.192 454.726 135.057 454.53L135.567 454.476C137.383 454.285 138.742 453.764 139.644 452.913C140.547 452.062 140.925 450.943 140.779 449.554Z" fill="black"/>
<path id="h_4" d="M127.411 411.774C125.979 410.522 125.297 408.935 125.364 407.013C125.481 403.665 127.428 402.042 131.206 402.145L141.674 402.511L141.579 405.219L131.097 404.853C129.955 404.823 129.102 405.057 128.537 405.555C127.973 406.043 127.672 406.829 127.634 407.913C127.603 408.791 127.81 409.57 128.256 410.25C128.701 410.93 129.298 411.469 130.046 411.866L141.333 412.261L141.239 414.969L118.752 414.184L118.847 411.475L127.411 411.774Z" fill="black"/>
<path id="a_2" d="M146.469 366.316C146.134 366.415 145.564 366.443 144.758 366.401C145.828 367.868 146.212 369.463 145.908 371.185C145.637 372.723 144.981 373.912 143.941 374.75C142.893 375.576 141.7 375.872 140.363 375.636C138.738 375.35 137.587 374.512 136.909 373.123C136.224 371.723 136.079 369.903 136.474 367.662L136.932 365.065L135.706 364.849C134.773 364.685 133.983 364.833 133.337 365.294C132.681 365.753 132.257 366.527 132.065 367.613C131.897 368.565 131.997 369.406 132.364 370.135C132.731 370.864 133.256 371.289 133.939 371.409L133.466 374.093C132.687 373.955 131.985 373.549 131.361 372.874C130.728 372.187 130.283 371.335 130.026 370.318C129.771 369.291 129.743 368.21 129.944 367.076C130.261 365.277 130.961 363.948 132.045 363.088C133.119 362.226 134.448 361.915 136.032 362.155L143.216 363.422C144.649 363.674 145.821 363.692 146.732 363.476L146.963 363.517L146.469 366.316ZM143.654 370.386C143.802 369.549 143.725 368.717 143.425 367.891C143.124 367.064 142.657 366.422 142.024 365.963L138.822 365.398L138.453 367.49C137.876 370.76 138.545 372.564 140.459 372.901C141.296 373.049 141.999 372.885 142.568 372.41C143.138 371.936 143.5 371.261 143.654 370.386Z" fill="black"/>
<path id="n_4" d="M139.361 330.683L141.283 331.215C140.209 329.593 139.973 327.853 140.576 325.995C141.612 322.809 143.931 321.787 147.534 322.927L157.495 326.163L156.658 328.74L146.683 325.499C145.593 325.156 144.708 325.145 144.028 325.469C143.351 325.782 142.845 326.455 142.51 327.486C142.239 328.322 142.223 329.128 142.464 329.904C142.704 330.681 143.13 331.363 143.739 331.951L154.48 335.441L153.643 338.019L138.569 333.121L139.361 330.683Z" fill="black"/>
<path id="g_3" d="M160.157 298.757C157.937 297.674 156.423 296.3 155.616 294.635C154.8 292.966 154.805 291.285 155.632 289.591C156.479 287.853 157.755 286.797 159.459 286.422L157.937 285.532L159.022 283.307L172.925 290.089C174.769 290.988 175.954 292.245 176.481 293.86C177.012 295.466 176.828 297.191 175.929 299.034C175.428 300.061 174.718 300.959 173.8 301.728C172.882 302.497 171.915 302.954 170.898 303.1L170.053 301.123C171.853 300.708 173.121 299.745 173.857 298.236C174.435 297.051 174.551 295.966 174.205 294.983C173.864 293.99 173.087 293.199 171.876 292.608L170.651 292.011C171.3 293.533 171.213 295.137 170.391 296.822C169.578 298.49 168.247 299.514 166.399 299.895C164.555 300.267 162.474 299.888 160.157 298.757ZM161.628 296.443C163.234 297.227 164.659 297.514 165.902 297.305C167.135 297.092 168.041 296.393 168.619 295.208C169.368 293.672 169.221 292.204 168.176 290.804L161.672 287.631C159.948 287.714 158.722 288.501 157.994 289.993C157.416 291.178 157.425 292.329 158.022 293.446C158.618 294.562 159.82 295.561 161.628 296.443Z" fill="black"/>
<path id="i_2" d="M189.842 262.918L188.327 265.164L175.187 256.301L176.702 254.055L189.842 262.918ZM171.579 254.132C171.214 253.887 170.981 253.57 170.877 253.182C170.779 252.786 170.877 252.369 171.172 251.932C171.467 251.495 171.816 251.248 172.22 251.19C172.624 251.133 173.008 251.227 173.373 251.473C173.737 251.719 173.964 252.037 174.054 252.427C174.144 252.818 174.042 253.232 173.747 253.669C173.452 254.106 173.107 254.356 172.711 254.419C172.32 254.474 171.943 254.378 171.579 254.132Z" fill="black"/>
<path id="n_5" d="M200.319 223.803L201.858 225.07C201.536 223.151 202.029 221.466 203.336 220.014C205.577 217.525 208.112 217.534 210.94 220.041L218.723 227.049L216.91 229.063L209.116 222.045C208.26 221.288 207.456 220.918 206.703 220.937C205.957 220.949 205.221 221.357 204.496 222.163C203.908 222.816 203.566 223.546 203.47 224.353C203.374 225.16 203.485 225.957 203.802 226.742L212.195 234.299L210.382 236.313L198.604 225.708L200.319 223.803Z" fill="black"/>
<path id="g_4" d="M232.302 203.095C230.714 201.203 229.89 199.332 229.83 197.483C229.764 195.626 230.452 194.092 231.896 192.881C233.377 191.638 234.973 191.192 236.682 191.542L235.653 190.111L237.549 188.52L247.492 200.369C248.811 201.94 249.382 203.571 249.206 205.261C249.038 206.944 248.169 208.445 246.598 209.763C245.722 210.498 244.709 211.029 243.557 211.358C242.406 211.687 241.336 211.712 240.348 211.431L240.381 209.282C242.194 209.634 243.743 209.271 245.03 208.191C246.04 207.344 246.587 206.4 246.671 205.361C246.762 204.315 246.375 203.276 245.509 202.244L244.633 201.201C244.606 202.855 243.875 204.285 242.438 205.49C241.017 206.683 239.385 207.077 237.541 206.673C235.706 206.263 233.959 205.07 232.302 203.095ZM234.587 201.58C235.736 202.949 236.92 203.791 238.14 204.105C239.354 204.413 240.466 204.142 241.476 203.295C242.785 202.196 243.248 200.795 242.863 199.091L238.212 193.548C236.603 192.922 235.162 193.142 233.891 194.209C232.881 195.057 232.421 196.112 232.512 197.374C232.602 198.637 233.294 200.039 234.587 201.58Z" fill="black"/>
<path id="i_3" d="M308.583 164.252L306.107 165.354L299.661 150.875L302.137 149.773L308.583 164.252ZM297.75 147.124C297.571 146.722 297.541 146.329 297.659 145.946C297.785 145.558 298.09 145.257 298.571 145.042C299.053 144.828 299.48 144.803 299.853 144.969C300.226 145.134 300.502 145.417 300.681 145.819C300.86 146.22 300.884 146.61 300.753 146.989C300.622 147.368 300.316 147.665 299.834 147.879C299.353 148.094 298.927 148.123 298.558 147.966C298.198 147.806 297.929 147.525 297.75 147.124Z" fill="black"/>
<path id="t_3" d="M339.428 132.286L340.486 135.976L343.33 135.16L343.907 137.174L341.063 137.989L343.772 147.438C343.947 148.048 344.206 148.471 344.548 148.708C344.888 148.936 345.363 148.963 345.973 148.788C346.273 148.701 346.67 148.527 347.163 148.263L347.769 150.375C347.138 150.76 346.498 151.045 345.85 151.23C344.686 151.564 343.708 151.464 342.914 150.929C342.121 150.395 341.539 149.48 341.167 148.185L338.458 138.736L335.684 139.532L335.107 137.518L337.881 136.723L336.823 133.033L339.428 132.286Z" fill="black"/>
<path id="." d="M380.256 142.164C380.191 141.7 380.272 141.294 380.499 140.947C380.736 140.598 381.13 140.384 381.682 140.307C382.233 140.23 382.671 140.326 382.994 140.596C383.328 140.865 383.527 141.231 383.593 141.695C383.655 142.14 383.563 142.533 383.315 142.873C383.076 143.213 382.681 143.421 382.13 143.498C381.579 143.576 381.142 143.484 380.82 143.224C380.507 142.962 380.319 142.609 380.256 142.164Z" fill="black"/>
</g>
</svg>
