<svg width="351" height="351" viewBox="0 0 351 351" fill="none" xmlns="http://www.w3.org/2000/svg">
<g id="loadingTextIntro">
<path id="s" d="M181.859 41.3742C181.859 40.1535 181.395 39.2095 180.467 38.5422C179.555 37.8586 177.952 37.2726 175.657 36.7843C173.379 36.2961 171.564 35.7101 170.213 35.0265C168.878 34.3429 167.886 33.5291 167.235 32.5851C166.6 31.6411 166.282 30.5181 166.282 29.216C166.282 27.0513 167.194 25.2202 169.017 23.7228C170.856 22.2254 173.2 21.4767 176.048 21.4767C179.043 21.4767 181.468 22.2498 183.323 23.7961C185.195 25.3423 186.131 27.3198 186.131 29.7287L181.59 29.7287C181.59 28.4917 181.061 27.4256 180.003 26.5304C178.961 25.6353 177.643 25.1877 176.048 25.1877C174.404 25.1877 173.118 25.5457 172.191 26.2619C171.263 26.978 170.799 27.9139 170.799 29.0695C170.799 30.16 171.23 30.9819 172.093 31.5353C172.956 32.0887 174.51 32.6177 176.756 33.1222C179.018 33.6268 180.849 34.229 182.249 34.9289C183.649 35.6287 184.682 36.4751 185.35 37.4679C186.033 38.4445 186.375 39.6408 186.375 41.0568C186.375 43.4168 185.431 45.313 183.543 46.7453C181.655 48.1613 179.206 48.8693 176.194 48.8693C174.079 48.8693 172.207 48.495 170.579 47.7463C168.952 46.9976 167.674 45.9559 166.746 44.6213C165.835 43.2704 165.379 41.8136 165.379 40.2511H169.896C169.977 41.7648 170.579 42.9692 171.702 43.8644C172.842 44.7433 174.339 45.1828 176.194 45.1828C177.903 45.1828 179.271 44.841 180.296 44.1574C181.338 43.4575 181.859 42.5298 181.859 41.3742Z" fill="black"/>
<path id="c" d="M202.708 49.0072C204.287 49.3315 205.764 49.1366 207.14 48.4225C208.517 47.7084 209.416 46.647 209.838 45.2384L214.023 46.0984C213.639 47.5647 212.839 48.8708 211.623 50.0167C210.407 51.1626 208.928 51.9719 207.186 52.4447C205.46 52.9208 203.72 52.9786 201.966 52.6182C198.443 51.8942 195.878 50.1457 194.271 47.3729C192.683 44.5874 192.309 41.154 193.147 37.0727L193.3 36.3313C193.817 33.8123 194.74 31.6674 196.068 29.8964C197.395 28.1255 199.032 26.8749 200.976 26.1446C202.937 25.4176 205.097 25.2966 207.456 25.7815C210.358 26.3778 212.587 27.7414 214.143 29.8723C215.715 32.0065 216.279 34.4738 215.837 37.274L211.652 36.414C211.868 34.7138 211.512 33.2116 210.584 31.9076C209.675 30.5908 208.383 29.7605 206.709 29.4164C204.461 28.9545 202.549 29.4088 200.971 30.7794C199.412 32.1374 198.319 34.3469 197.689 37.4079L197.517 38.2449C196.905 41.2262 197.047 43.6481 197.943 45.5106C198.84 47.3731 200.428 48.5387 202.708 49.0072Z" fill="black"/>
<path id="r" d="M242.126 42.4002C241.542 42.026 240.884 41.6816 240.151 41.3671C237.429 40.1989 235.084 40.5654 233.117 42.4665L225.723 59.6969L221.573 57.9158L231.99 33.6406L236.028 35.3736L234.892 38.2069C237.184 36.6222 239.579 36.3659 242.077 37.4378C242.884 37.7844 243.453 38.1522 243.782 38.5413L242.126 42.4002Z" fill="black"/>
<path id="e" d="M248.287 72.9453C245.348 70.8997 243.626 68.2736 243.122 65.0668C242.626 61.8466 243.504 58.6202 245.754 55.3873L246.228 54.706C247.725 52.5553 249.467 50.9219 251.453 49.8058C253.462 48.6858 255.532 48.1629 257.661 48.2372C259.814 48.3074 261.751 48.9423 263.475 50.1417C266.293 52.1036 267.838 54.5569 268.109 57.5016C268.379 60.4463 267.31 63.6487 264.902 67.1086L263.828 68.6515L249.14 58.4284C247.706 60.603 247.123 62.7653 247.392 64.9154C247.683 67.0613 248.75 68.7759 250.593 70.059C251.903 70.9702 253.197 71.4748 254.478 71.5727C255.758 71.6706 257.046 71.5158 258.341 71.1083L259.378 74.4477C255.617 75.9751 251.921 75.4744 248.287 72.9453ZM261.355 53.1875C259.859 52.1461 258.222 51.8198 256.444 52.2086C254.675 52.584 252.988 53.6699 251.38 55.4663L262.241 63.0255L262.436 62.745C263.64 60.787 264.146 58.9776 263.954 57.3167C263.771 55.6425 262.904 54.2661 261.355 53.1875Z" fill="black"/>
<path id="e_2" d="M267.355 89.6143C264.888 87.019 263.73 84.1 263.882 80.8573C264.045 77.6033 265.554 74.6195 268.408 71.9058L269.01 71.3339C270.909 69.5285 272.944 68.2791 275.115 67.5858C277.308 66.8931 279.44 66.7975 281.511 67.2989C283.605 67.801 285.376 68.8129 286.822 70.3347C289.188 72.8238 290.207 75.5378 289.88 78.4767C289.552 81.4157 287.86 84.3373 284.805 87.2416L283.443 88.5368L271.113 75.5663C269.271 77.4076 268.264 79.4084 268.094 81.5684C267.948 83.7291 268.648 85.6234 270.195 87.2513C271.294 88.4074 272.461 89.1623 273.695 89.5159C274.93 89.8695 276.222 89.9771 277.573 89.8386L277.916 93.3184C273.926 94.0577 270.405 92.823 267.355 89.6143ZM284.133 72.8914C282.877 71.5702 281.339 70.921 279.519 70.944C277.712 70.9558 275.84 71.6797 273.904 73.1157L283.02 82.7065L283.268 82.471C284.842 80.7955 285.702 79.1249 285.847 77.4593C286.005 75.7825 285.433 74.2598 284.133 72.8914Z" fill="black"/>
<path id="n" d="M302.149 90.1573L299.409 92.0379C302.631 92.4076 305.103 93.9737 306.825 96.7362C309.778 101.474 308.595 105.529 303.275 108.903L288.461 118.136L286.072 114.303L300.907 105.057C302.514 104.036 303.477 102.918 303.794 101.704C304.12 100.503 303.805 99.1367 302.849 97.6035C302.074 96.3603 301.063 95.4758 299.814 94.9498C298.566 94.4238 297.239 94.2341 295.835 94.3808L279.86 104.338L277.471 100.505L299.889 86.5315L302.149 90.1573Z" fill="black"/>
<path id="i" d="M300.408 158.228L299.724 153.764L325.835 149.764L326.519 154.228L300.408 158.228ZM332.706 148.341C333.43 148.23 334.074 148.353 334.639 148.711C335.207 149.086 335.558 149.707 335.691 150.576C335.824 151.444 335.676 152.142 335.246 152.669C334.816 153.196 334.239 153.515 333.515 153.626C332.791 153.737 332.153 153.604 331.602 153.227C331.05 152.851 330.708 152.228 330.575 151.359C330.442 150.491 330.582 149.794 330.995 149.27C331.412 148.761 331.982 148.452 332.706 148.341Z" fill="black"/>
<path id="s_2" d="M308.054 187.656C309.273 187.718 310.239 187.302 310.953 186.409C311.682 185.534 312.348 183.962 312.952 181.695C313.555 179.444 314.232 177.661 314.983 176.347C315.733 175.048 316.597 174.098 317.572 173.496C318.547 172.91 319.685 172.649 320.985 172.715C323.147 172.825 324.93 173.828 326.333 175.724C327.735 177.637 328.364 180.016 328.22 182.86C328.068 185.851 327.173 188.234 325.535 190.009C323.896 191.8 321.874 192.635 319.468 192.513L319.698 187.977C320.933 188.04 322.025 187.566 322.972 186.554C323.919 185.56 324.433 184.266 324.514 182.673C324.597 181.031 324.305 179.728 323.636 178.766C322.968 177.803 322.057 177.292 320.903 177.234C319.814 177.178 318.971 177.568 318.375 178.401C317.778 179.234 317.171 180.76 316.554 182.978C315.935 185.212 315.241 187.01 314.471 188.372C313.701 189.735 312.804 190.724 311.778 191.34C310.768 191.974 309.556 192.254 308.142 192.183C305.785 192.063 303.939 191.024 302.604 189.066C301.286 187.109 300.703 184.627 300.855 181.619C300.962 179.506 301.431 177.656 302.261 176.068C303.091 174.481 304.196 173.257 305.576 172.398C306.972 171.557 308.45 171.175 310.01 171.254L309.781 175.765C308.265 175.77 307.032 176.31 306.081 177.386C305.146 178.48 304.631 179.953 304.537 181.806C304.45 183.513 304.723 184.896 305.353 185.954C306 187.03 306.9 187.597 308.054 187.656Z" fill="black"/>
<path id="l" d="M287.686 232.39L289.675 228.335L323.343 244.85L321.354 248.905L287.686 232.39Z" fill="black"/>
<path id="o" d="M293.231 250.666C295.278 252.25 296.81 254.074 297.826 256.137C298.833 258.213 299.228 260.309 299.01 262.426C298.782 264.555 297.956 266.539 296.532 268.38C294.33 271.224 291.567 272.759 288.243 272.986C284.909 273.225 281.607 272.079 278.338 269.548L278.087 269.354C276.053 267.78 274.53 265.973 273.516 263.932C272.505 261.915 272.111 259.83 272.336 257.678C272.551 255.539 273.386 253.53 274.84 251.651C277.032 248.82 279.795 247.284 283.129 247.045C286.453 246.819 289.737 247.961 292.981 250.472L293.231 250.666ZM290.027 253.928C287.71 252.135 285.437 251.23 283.207 251.212C280.968 251.207 279.15 252.106 277.756 253.908C276.351 255.723 275.943 257.712 276.532 259.876C277.134 262.05 278.715 264.129 281.276 266.111C283.567 267.885 285.844 268.772 288.107 268.774C290.372 268.799 292.202 267.91 293.597 266.108C294.962 264.345 295.361 262.38 294.795 260.213C294.229 258.046 292.64 255.951 290.027 253.928Z" fill="black"/>
<path id="a" d="M252.398 274.938C252.934 275.164 253.699 275.73 254.692 276.636C254.865 273.614 256.056 271.154 258.267 269.256C260.243 267.56 262.344 266.721 264.57 266.741C266.794 266.783 268.643 267.663 270.117 269.379C271.909 271.466 272.507 273.763 271.912 276.268C271.316 278.797 269.579 281.296 266.701 283.766L263.367 286.629L264.719 288.203C265.747 289.401 266.921 290.045 268.242 290.134C269.573 290.235 270.937 289.687 272.332 288.489C273.555 287.439 274.315 286.251 274.612 284.923C274.909 283.595 274.682 282.493 273.929 281.616L277.374 278.658C278.233 279.658 278.708 280.924 278.799 282.454C278.889 284.008 278.562 285.576 277.818 287.158C277.062 288.751 275.955 290.173 274.498 291.424C272.188 293.406 269.881 294.379 267.575 294.342C265.28 294.317 263.239 293.314 261.451 291.331L253.531 282.106C251.951 280.265 250.46 279.003 249.058 278.32L248.804 278.023L252.398 274.938ZM260.327 272.668C259.252 273.59 258.472 274.743 257.986 276.125C257.5 277.508 257.422 278.83 257.753 280.09L261.284 284.202L263.97 281.896C268.169 278.292 269.213 275.261 267.103 272.803C266.181 271.729 265.102 271.196 263.866 271.206C262.63 271.216 261.451 271.703 260.327 272.668Z" fill="black"/>
<path id="d" d="M252.905 291.343C254.872 294.887 255.612 298.199 255.126 301.28C254.647 304.375 253.049 306.677 250.331 308.186C247.627 309.687 244.972 309.95 242.365 308.977L249.048 321.016L245.099 323.208L226.9 290.42L230.529 288.406L232.095 290.776C232.6 287.964 234.262 285.776 237.08 284.212C239.755 282.727 242.548 282.61 245.458 283.862C248.353 285.121 250.781 287.515 252.74 291.045L252.905 291.343ZM248.708 293.087C247.254 290.469 245.576 288.72 243.673 287.84C241.77 286.96 239.865 287.05 237.958 288.108C235.453 289.498 234.249 291.637 234.344 294.526L240.233 305.135C242.622 306.657 245.041 306.738 247.489 305.38C249.424 304.305 250.518 302.721 250.77 300.626C251.022 298.532 250.335 296.019 248.708 293.087Z" fill="black"/>
<path id="i_2" d="M211.335 295.601L215.644 294.249L223.552 319.453L219.243 320.805L211.335 295.601ZM225.999 326.029C226.219 326.728 226.194 327.384 225.926 327.997C225.642 328.615 225.081 329.055 224.242 329.318C223.404 329.581 222.691 329.54 222.106 329.195C221.52 328.85 221.117 328.328 220.898 327.63C220.679 326.931 220.713 326.28 221.002 325.678C221.291 325.076 221.854 324.643 222.693 324.38C223.531 324.117 224.241 324.15 224.822 324.479C225.388 324.814 225.78 325.33 225.999 326.029Z" fill="black"/>
<path id="n_2" d="M196.45 325.797L195.968 322.509C194.217 325.239 191.722 326.769 188.484 327.098C182.93 327.663 179.81 324.815 179.124 318.553L177.358 301.187L181.851 300.73L183.62 318.12C183.829 320.013 184.408 321.37 185.359 322.189C186.293 323.01 187.659 323.329 189.456 323.147C190.914 322.998 192.153 322.48 193.175 321.591C194.197 320.701 194.952 319.594 195.439 318.268L193.534 299.542L198.028 299.085L200.7 325.365L196.45 325.797Z" fill="black"/>
<path id="g" d="M172.556 314.5C172.14 318.596 170.862 321.755 168.722 323.975C166.58 326.211 163.947 327.17 160.822 326.852C157.616 326.526 155.229 325.139 153.662 322.689L153.147 325.581L149.042 325.164L151.651 299.515C151.996 296.114 153.281 293.537 155.504 291.784C157.711 290.029 160.515 289.324 163.916 289.67C165.81 289.863 167.623 290.456 169.354 291.45C171.085 292.444 172.357 293.694 173.169 295.2L170.563 297.659C168.879 295.083 166.644 293.653 163.858 293.37C161.672 293.147 159.91 293.59 158.57 294.697C157.214 295.803 156.423 297.473 156.196 299.707L155.966 301.966C157.974 300.076 160.533 299.289 163.641 299.605C166.718 299.918 169.086 301.411 170.745 304.082C172.387 306.752 172.991 310.225 172.556 314.5ZM168.091 313.53C168.392 310.567 168.022 308.174 166.98 306.35C165.937 304.542 164.322 303.527 162.136 303.305C159.303 303.017 157.091 304.093 155.501 306.532L154.281 318.531C155.402 321.181 157.339 322.646 160.092 322.926C162.278 323.148 164.073 322.471 165.476 320.896C166.88 319.321 167.751 316.866 168.091 313.53Z" fill="black"/>
<path id="p" d="M97.6248 290.095C99.5758 286.58 101.952 284.194 104.753 282.938C107.553 281.682 110.327 281.816 113.074 283.34C115.877 284.896 117.589 287.01 118.21 289.681L124.383 278.56L128.332 280.752L110.583 312.729L106.976 310.726L108.205 308.058C105.492 309.158 102.704 308.914 99.844 307.326C97.069 305.786 95.458 303.524 95.011 300.539C94.5498 297.547 95.3539 294.186 97.4234 290.458L97.6248 290.095ZM101.325 292.735C99.8796 295.339 99.2932 297.704 99.566 299.828C99.8387 301.953 100.943 303.552 102.878 304.627C105.269 305.954 107.651 305.889 110.023 304.432L116.148 293.396C116.136 290.634 114.913 288.578 112.48 287.227C110.587 286.177 108.671 286.09 106.732 286.968C104.77 287.853 102.968 289.775 101.325 292.735Z" fill="black"/>
<path id="l_2" d="M92.3092 268.915L95.7362 271.857L71.3097 300.31L67.8827 297.368L92.3092 268.915Z" fill="black"/>
<path id="e_3" d="M76.1954 250.763C78.3872 253.595 79.2438 256.616 78.7653 259.827C78.2739 263.047 76.4708 265.863 73.3561 268.274L72.6997 268.782C70.6275 270.386 68.4767 271.423 66.2473 271.894C63.995 272.361 61.8641 272.24 59.8543 271.532C57.8218 270.82 56.1629 269.635 54.8777 267.974C52.7756 265.259 52.0363 262.455 52.6597 259.565C53.2831 256.674 55.2615 253.939 58.595 251.358L60.0816 250.208L71.0355 264.359C73.055 262.713 74.2585 260.825 74.646 258.693C75.0107 256.558 74.5056 254.603 73.1308 252.827C72.1544 251.565 71.0701 250.696 69.8778 250.22C68.6855 249.743 67.4106 249.505 66.053 249.506L66.0633 246.01C70.1082 245.678 73.4856 247.262 76.1954 250.763ZM57.8123 265.703C58.9281 267.144 60.3923 267.946 62.2048 268.107C64.0045 268.278 65.94 267.747 68.0114 266.514L59.9117 256.051L59.6414 256.26C57.9064 257.768 56.882 259.343 56.5684 260.985C56.242 262.637 56.6566 264.21 57.8123 265.703Z" fill="black"/>
<path id="a_2" d="M59.9648 224.088C59.6118 224.551 58.8721 225.15 57.7455 225.884C60.6283 226.808 62.7112 228.578 63.9942 231.194C65.1411 233.532 65.4261 235.776 64.8493 237.926C64.2506 240.069 62.9357 241.639 60.9046 242.635C58.435 243.846 56.062 243.85 53.7855 242.646C51.4873 241.435 49.5031 239.127 47.833 235.722L45.8977 231.777L44.0345 232.691C42.6171 233.386 41.6998 234.362 41.2826 235.618C40.8508 236.881 41.0399 238.338 41.8499 239.99C42.5595 241.436 43.5197 242.47 44.7306 243.09C45.9415 243.711 47.0657 243.767 48.1032 243.258L50.103 247.335C48.9194 247.916 47.5753 248.058 46.0708 247.763C44.5445 247.46 43.1086 246.75 41.7632 245.634C40.4107 244.503 39.3115 243.075 38.4657 241.35C37.1253 238.618 36.762 236.14 37.3758 233.917C37.975 231.702 39.4585 229.977 41.8263 228.743L52.742 223.389C54.9192 222.321 56.5147 221.194 57.5282 220.008L57.8789 219.836L59.9648 224.088ZM60.175 232.333C59.5514 231.062 58.6312 230.017 57.4146 229.2C56.1979 228.383 54.9381 227.977 53.6351 227.981L48.7691 230.368L50.3281 233.547C52.7651 238.515 55.4376 240.286 58.3456 238.859C59.6169 238.236 60.4027 237.325 60.703 236.126C61.0032 234.927 60.8273 233.663 60.175 232.333Z" fill="black"/>
<path id="s_3" d="M45.9539 202.568C44.7721 202.874 43.9745 203.56 43.5611 204.625C43.1277 205.679 42.9624 207.378 43.0649 209.722C43.1633 212.05 43.051 213.954 42.7278 215.433C42.4006 216.897 41.8616 218.062 41.1109 218.929C40.3562 219.78 39.3485 220.368 38.088 220.695C35.9924 221.237 33.9913 220.814 32.0848 219.425C30.1742 218.019 28.862 215.938 28.148 213.181C27.3974 210.282 27.5379 207.74 28.5697 205.556C29.5974 203.357 31.2773 201.955 33.6092 201.351L34.7474 205.747C33.55 206.057 32.6505 206.837 32.0491 208.085C31.4436 209.318 31.3407 210.706 31.7405 212.251C32.1525 213.842 32.8215 214.997 33.7473 215.716C34.6731 216.434 35.6954 216.649 36.8141 216.359C37.8698 216.086 38.5574 215.462 38.8769 214.488C39.1964 213.515 39.3189 211.877 39.2443 209.576C39.1657 207.26 39.2897 205.336 39.6164 203.806C39.9431 202.275 40.5034 201.063 41.2972 200.168C42.0713 199.261 43.1437 198.63 44.5145 198.275C46.7992 197.684 48.8715 198.123 50.7313 199.591C52.5753 201.064 53.8747 203.258 54.6294 206.173C55.1598 208.221 55.2666 210.127 54.9497 211.89C54.6329 213.654 53.9447 215.152 52.8852 216.384C51.8059 217.605 50.5099 218.412 48.9973 218.803L47.8652 214.431C49.3102 213.973 50.3252 213.088 50.9103 211.776C51.4756 210.453 51.5257 208.893 51.0606 207.097C50.6322 205.443 49.9587 204.205 49.0399 203.383C48.1013 202.55 47.0726 202.279 45.9539 202.568Z" fill="black"/>
<path id="e_4" d="M50.7987 180.254C50.9801 183.83 49.9573 186.799 47.7303 189.161C45.4871 191.524 42.3986 192.805 38.4648 193.004L37.6358 193.046C35.0188 193.179 32.661 192.802 30.5626 191.914C28.447 191.011 26.7669 189.695 25.5221 187.965C24.2602 186.22 23.5761 184.299 23.4698 182.202C23.2958 178.772 24.2904 176.049 26.4534 174.033C28.6164 172.016 31.8029 170.901 36.013 170.688L37.8905 170.593L38.7969 188.465C41.3944 188.268 43.4611 187.406 44.997 185.877C46.5158 184.334 47.2183 182.44 47.1046 180.197C47.0238 178.604 46.6303 177.271 45.924 176.199C45.2177 175.126 44.3072 174.203 43.1923 173.428L45.1982 170.564C48.7077 172.603 50.5745 175.833 50.7987 180.254ZM27.1759 182.014C27.2683 183.835 28.0122 185.329 29.4078 186.497C30.7871 187.665 32.6789 188.335 35.0833 188.507L34.4131 175.291L34.0717 175.309C31.7863 175.555 30.0459 176.262 28.8503 177.431C27.6384 178.601 27.0803 180.129 27.1759 182.014Z" fill="black"/>
<path id="w" d="M55.2748 120.905L38.1049 109.131L39.6735 104.895L61.7742 121.281L60.5024 124.715L39.499 123.784L56.1017 136.598L54.8298 140.032L27.3957 138.046L28.9559 133.834L49.3063 135.825L32.8987 123.188L34.1621 119.776L55.2748 120.905Z" fill="black"/>
<path id="a_3" d="M72.9287 102.627C72.3489 102.573 71.4497 102.262 70.2309 101.694C70.9712 104.629 70.5708 107.333 69.0297 109.806C67.6522 112.016 65.8985 113.445 63.7686 114.093C61.6335 114.718 59.6059 114.432 57.686 113.236C55.3517 111.781 54.0932 109.769 53.9107 107.2C53.7229 104.609 54.632 101.704 56.638 98.486L58.9626 94.7567L57.2015 93.659C55.8617 92.8238 54.5484 92.5615 53.2617 92.8719C51.9613 93.1736 50.8246 94.1049 49.8517 95.6658C48.9994 97.0332 48.6301 98.3949 48.7439 99.7508C48.8577 101.107 49.405 102.09 50.3857 102.702L47.9836 106.555C46.8648 105.858 46.0328 104.793 45.4876 103.36C44.9372 101.904 44.78 100.31 45.0159 98.5779C45.2605 96.8316 45.8908 95.1435 46.9067 93.5137C48.5166 90.9307 50.4271 89.3118 52.6381 88.657C54.8353 87.9935 57.0837 88.3401 59.3834 89.6968L69.7014 96.1281C71.7595 97.4109 73.5598 98.1687 75.1025 98.4014L75.434 98.608L72.9287 102.627ZM66.0426 107.167C66.7917 105.966 67.1912 104.632 67.2411 103.168C67.2911 101.703 66.9695 100.419 66.2763 99.3154L61.6767 96.4484L59.8042 99.4526C56.877 104.149 56.7877 107.354 59.5364 109.067C60.7381 109.816 61.9271 110.001 63.1032 109.622C64.2794 109.242 65.2592 108.424 66.0426 107.167Z" fill="black"/>
<path id="i_3" d="M86.05 87.21L82.8563 90.4038L64.1773 71.7248L67.3711 68.5311L86.05 87.21ZM58.9638 67.0292C58.4459 66.5113 58.1639 65.9186 58.1179 65.2511C58.0834 64.572 58.3768 63.9218 58.9983 63.3003C59.6198 62.6788 60.2701 62.3853 60.9491 62.4199C61.6281 62.4544 62.2266 62.7306 62.7445 63.2485C63.2624 63.7664 63.5328 64.3591 63.5559 65.0266C63.5789 65.6942 63.2796 66.3387 62.6582 66.9601C62.0367 67.5816 61.3922 67.8808 60.7247 67.8578C60.0687 67.8233 59.4817 67.5471 58.9638 67.0292Z" fill="black"/>
<path id="t" d="M75.348 50.639L79.871 55.162L83.3582 51.6748L85.8268 54.1434L82.3396 57.6306L93.9233 69.2143C94.6714 69.9624 95.3907 70.371 96.0813 70.44C96.7603 70.4976 97.4738 70.1523 98.2219 69.4042C98.5902 69.0359 99.0275 68.4605 99.5339 67.6779L102.123 70.2674C101.513 71.3377 100.811 72.2699 100.017 73.0641C98.5902 74.4912 97.0825 75.1357 95.4943 74.9976C93.9061 74.8594 92.3178 73.9963 90.7296 72.4081L79.1459 60.8243L75.745 64.2252L73.2764 61.7566L76.6773 58.3557L72.1543 53.8327L75.348 50.639Z" fill="black"/>
<path id="." d="M122.548 58.6012C122.24 57.8833 122.193 57.1952 122.406 56.5368C122.634 55.8721 123.175 55.3568 124.027 54.9909C124.88 54.625 125.626 54.5884 126.265 54.8808C126.919 55.1669 127.4 55.6689 127.708 56.3868C128.003 57.0749 128.026 57.747 127.777 58.4032C127.542 59.053 126.998 59.5608 126.146 59.9267C125.293 60.2926 124.55 60.3367 123.918 60.0592C123.3 59.7753 122.843 59.2893 122.548 58.6012Z" fill="black"/>
</g>
</svg>
