<svg width="1640" height="1640" viewBox="0 0 1640 1640" fill="none" xmlns="http://www.w3.org/2000/svg">
<g id="softwares">
<g id="t" style="mix-blend-mode:darken">
<path d="M833.278 398.72C830.558 398.72 828.638 398.18 827.518 397.1C826.398 395.98 825.838 394.1 825.838 391.46V376.7C825.838 375.62 825.598 374.86 825.118 374.42C824.638 373.98 823.738 373.74 822.418 373.7L822.178 373.34L822.478 371.54C823.638 370.98 824.758 370.3 825.838 369.5C826.958 368.66 827.858 367.94 828.538 367.34C829.258 366.7 829.718 366.28 829.918 366.08L831.118 366.56C831.078 366.76 831.018 367.24 830.938 368C830.858 368.76 830.758 369.78 830.638 371.06L839.458 370.88L839.638 371.06L839.098 374.24L830.398 374.06C830.118 378.46 829.978 383.46 829.978 389.06C829.978 391.1 830.318 392.54 830.998 393.38C831.718 394.22 832.938 394.64 834.658 394.64C835.258 394.64 835.858 394.56 836.458 394.4C837.058 394.24 837.558 394.08 837.958 393.92C838.358 393.72 838.618 393.6 838.738 393.56L839.338 395.12C839.098 395.32 838.578 395.7 837.778 396.26C837.018 396.82 836.178 397.38 835.258 397.94C834.378 398.46 833.718 398.72 833.278 398.72Z" fill="black"/>
</g>
<g id="h" style="mix-blend-mode:darken">
<path d="M841.95 396.025C843.116 396.002 843.938 395.77 844.417 395.329C844.935 394.891 845.241 394.114 845.335 392.998L848.006 361.189C848.096 360.113 847.982 359.321 847.664 358.812C847.349 358.264 846.812 357.958 846.055 357.895L844.799 357.789L844.575 357.59L844.975 355.697C846.344 355.651 847.898 355.541 849.639 355.366C851.383 355.151 852.827 354.931 853.97 354.706L854.263 355.513C853.947 355.928 853.489 358.037 852.889 361.84C852.328 365.647 851.734 370.333 851.106 375.9C855.911 373.173 859.031 371.869 860.466 371.99C863.057 372.208 865.013 373.054 866.334 374.53C867.655 376.006 868.214 377.959 868.009 380.391C867.943 381.188 867.649 383.01 867.129 385.856C866.379 390.49 865.957 393.364 865.863 394.48C865.766 395.636 865.853 396.507 866.125 397.092C866.401 397.637 866.917 397.941 867.674 398.004L869.777 398.061L869.877 398.31L869.182 400.841C866.562 400.5 864.793 400.291 863.876 400.214C862.282 400.08 860.209 400.147 857.658 400.415L858.103 397.983C859.325 397.765 860.221 397.378 860.789 396.824C861.361 396.23 861.69 395.415 861.777 394.378L863.13 382.57C863.297 380.577 862.988 379.006 862.201 377.856C861.455 376.709 860.284 376.069 858.69 375.935C857.693 375.851 856.431 376.067 854.902 376.58C853.414 377.098 852.053 377.766 850.82 378.586C850.326 383.04 849.859 387.878 849.421 393.1C849.317 394.335 849.403 395.226 849.678 395.771C849.957 396.276 850.495 396.562 851.292 396.629L853.395 396.685L853.494 396.934L852.74 399.46C850 399.109 848.191 398.897 847.314 398.824C845.601 398.68 843.624 398.554 841.385 398.446L841.95 396.025Z" fill="black"/>
</g>
<g id="a" style="mix-blend-mode:darken">
<path d="M898.305 406.011C895.111 405.471 893.626 403.577 893.85 400.329L893.624 400.23C891.964 401.409 890.472 402.313 889.149 402.941C887.865 403.576 886.927 403.843 886.336 403.743C884.127 403.37 882.43 402.373 881.243 400.752C880.057 399.132 879.644 397.257 880.004 395.127C880.198 393.983 880.644 393.024 881.343 392.25C882.081 391.482 882.947 391.04 883.94 390.924L895.701 389.749L896.2 387.156C896.534 385.184 896.34 383.569 895.62 382.312C894.9 381.054 893.711 380.285 892.055 380.005C890.95 379.818 889.744 379.877 888.434 380.183C887.125 380.489 885.799 381.016 884.455 381.762L884.189 381.534L883.91 378.87C885.944 378.119 887.957 377.486 889.951 376.971C891.991 376.424 893.425 376.22 894.253 376.36C896.817 376.794 898.715 377.805 899.947 379.392C901.18 380.98 901.593 382.977 901.186 385.383C901.039 386.25 900.601 388.002 899.871 390.637C898.703 394.902 898.02 397.626 897.819 398.809C897.673 399.677 897.776 400.384 898.13 400.931C898.484 401.478 899.035 401.814 899.785 401.941C900.416 402.048 901.09 402.02 901.807 401.857C902.531 401.655 903.123 401.39 903.584 401.062L904.253 402.149C903.494 403.035 902.562 403.871 901.455 404.658C900.394 405.411 899.345 405.863 898.305 406.011ZM888.022 399.891C888.771 400.017 889.682 399.908 890.755 399.562C891.874 399.183 892.917 398.65 893.886 397.962L895.202 391.977L886.746 393.042C885.542 393.203 884.83 393.935 884.61 395.237C884.417 396.38 884.631 397.39 885.254 398.266C885.916 399.149 886.839 399.691 888.022 399.891Z" fill="black"/>
</g>
<g id="n" style="mix-blend-mode:darken">
<path d="M928.769 410.489C930.011 410.477 930.958 410.246 931.611 409.794C932.274 409.303 932.735 408.554 932.993 407.547L936.18 396.1C936.677 394.163 936.634 392.562 936.05 391.297C935.505 390.042 934.458 389.215 932.908 388.817C931.669 388.499 930.325 388.505 928.877 388.835C927.44 389.127 926.142 389.517 924.984 390.004C922.576 397.934 921.179 402.655 920.791 404.166C920.482 405.367 920.418 406.259 920.599 406.842C920.79 407.387 921.272 407.759 922.047 407.958C922.473 408.067 922.885 408.152 923.282 408.213C923.68 408.274 923.956 408.324 924.111 408.364L924.168 408.626L923.003 410.991C922.664 410.862 921.996 410.649 920.999 410.352C920.001 410.055 918.921 409.757 917.759 409.458C916.752 409.2 915.618 408.95 914.359 408.709C913.128 408.517 912.314 408.391 911.916 408.33L912.819 406.022C913.992 406.116 914.876 405.972 915.47 405.587C916.064 405.203 916.501 404.469 916.779 403.384L920.42 389.204C920.758 387.886 920.779 386.921 920.482 386.308C920.195 385.656 919.529 385.196 918.482 384.928L917.843 384.763L917.729 384.486L918.395 382.613C920.131 382.77 921.857 382.883 923.574 382.952C925.339 382.992 926.469 383.014 926.964 383.017L927.193 383.571C927.056 383.784 926.811 384.258 926.457 384.993C926.113 385.689 925.817 386.439 925.569 387.243L925.641 387.447C930.814 385.636 934.039 384.895 935.318 385.224C937.759 385.85 939.522 387.026 940.607 388.75C941.692 390.474 941.942 392.479 941.355 394.765C941.255 395.152 940.681 396.904 939.633 400.022C938.289 403.971 937.413 406.741 937.005 408.329C936.716 409.453 936.657 410.325 936.828 410.947C937.009 411.531 937.467 411.917 938.203 412.106C938.629 412.215 939.041 412.3 939.438 412.361C939.836 412.422 940.112 412.472 940.267 412.512L940.324 412.774L939.217 415.154C938.878 415.025 938.23 414.817 937.271 414.53C936.312 414.243 935.252 413.95 934.089 413.651C933.082 413.393 931.895 413.191 930.528 413.047C929.2 412.912 928.332 412.834 927.925 412.812L928.769 410.489Z" fill="black"/>
</g>
<g id="k" style="mix-blend-mode:darken">
<path d="M947.137 415.257C948.171 415.448 948.962 415.427 949.509 415.194C950.07 414.923 950.499 414.479 950.798 413.864C951.135 413.261 951.574 412.185 952.113 410.636L961.801 382.815C962.512 380.775 962.168 379.512 960.77 379.025C960.506 378.933 960.209 378.872 959.881 378.842C959.566 378.775 959.363 378.747 959.275 378.758C959.354 378.532 959.51 378.205 959.743 377.778L960.232 376.741C961.935 377.08 963.721 377.363 965.59 377.59C967.459 377.818 968.659 377.96 969.19 378.018L969.273 378.873C968.634 379.37 966.862 383.243 963.957 390.491C961.089 397.752 958.182 405.613 955.236 414.075C954.828 415.246 954.69 416.129 954.821 416.726C954.965 417.284 955.415 417.695 956.171 417.958C956.586 418.103 956.989 418.222 957.38 418.316C957.771 418.41 958.042 418.483 958.193 418.535L958.228 418.801L956.869 421.06C956.542 420.904 955.895 420.636 954.926 420.256C953.957 419.877 952.905 419.489 951.772 419.095C950.79 418.753 949.681 418.409 948.446 418.064C947.236 417.769 946.435 417.575 946.044 417.481L947.137 415.257ZM959.765 405.995L968.757 401.883C969.457 401.576 969.948 401.323 970.229 401.125C970.523 400.888 970.716 400.638 970.808 400.374C970.952 399.958 970.812 399.57 970.387 399.21C969.962 398.851 969.201 398.48 968.106 398.098L968.034 397.756L969.117 396.29C969.532 396.435 970.281 396.717 971.363 397.136C972.483 397.569 973.629 397.989 974.8 398.397C975.707 398.712 976.759 399.036 977.956 399.368C979.166 399.663 979.948 399.85 980.301 399.931L980.373 400.274L979.308 401.872C977.601 401.786 975.731 402.109 973.697 402.841C971.701 403.586 969.226 404.673 966.272 406.1C966.272 406.1 965.483 406.482 963.904 407.245L967.19 416.967C967.895 419.076 968.652 420.674 969.46 421.76C970.267 422.846 971.257 423.593 972.428 424.001L972.499 424.343L971.587 425.868C971.207 425.863 970.449 425.789 969.313 425.648C968.163 425.544 967.418 425.433 967.078 425.314C966.512 425.117 965.916 424.698 965.292 424.057C964.831 423.558 964.403 422.9 964.009 422.085C963.666 421.246 963.265 420.026 962.806 418.426L959.336 406.862L959.765 405.995Z" fill="black"/>
</g>
<g id="s" style="mix-blend-mode:darken">
<path d="M989.973 434.609C988.804 434.088 987.767 433.517 986.861 432.895C985.976 432.326 985.3 431.828 984.834 431.401C984.367 430.974 984.077 430.692 983.963 430.554L983.969 430.097C984.323 429.597 984.955 428.522 985.866 426.869C986.777 425.217 987.454 423.942 987.897 423.045L989.938 423.625C988.864 426.036 988.509 427.915 988.874 429.259C989.239 430.604 990.389 431.707 992.326 432.569C993.715 433.188 995.022 433.398 996.249 433.199C997.476 433.001 998.292 432.445 998.699 431.532C999.106 430.618 999.033 429.601 998.482 428.48C997.983 427.338 996.774 425.53 994.854 423.055C993.243 421.068 992.207 419.315 991.745 417.796C991.283 416.277 991.345 414.859 991.93 413.544C992.581 412.082 993.605 410.962 995.003 410.183C996.417 409.367 998.038 408.972 999.865 408.998C1001.71 408.987 1003.58 409.405 1005.48 410.251C1006.36 410.641 1007.17 411.088 1007.91 411.592C1008.66 412.06 1009.26 412.481 1009.71 412.855C1010.15 413.229 1010.44 413.466 1010.57 413.568L1010.56 413.891C1010.32 414.224 1009.79 414.991 1008.94 416.193C1008.12 417.358 1007.32 418.665 1006.54 420.114L1004.44 419.376C1004.49 419.266 1004.6 419.055 1004.79 418.742C1004.97 418.43 1005.13 418.127 1005.26 417.835C1005.84 416.52 1005.9 415.407 1005.43 414.497C1005.01 413.566 1004.02 412.751 1002.45 412.052C1001.2 411.499 1000.01 411.319 998.877 411.513C997.776 411.724 997.038 412.249 996.664 413.09C996.274 413.967 996.273 414.952 996.662 416.044C997.088 417.154 997.946 418.521 999.237 420.146C1001.5 423.035 1002.91 425.264 1003.48 426.832C1004.11 428.38 1004.11 429.848 1003.49 431.236C1002.88 432.625 1001.84 433.719 1000.39 434.518C998.94 435.317 997.267 435.732 995.37 435.764C993.526 435.775 991.727 435.39 989.973 434.609Z" fill="black"/>
</g>
<g id="t_2" style="mix-blend-mode:darken">
<path d="M1083.42 491.372C1081.29 489.683 1080.12 488.067 1079.92 486.525C1079.73 484.951 1080.46 483.13 1082.1 481.061L1091.27 469.494C1091.94 468.648 1092.23 467.903 1092.12 467.26C1092.02 466.617 1091.46 465.87 1090.45 465.019L1090.49 464.587L1091.84 463.363C1093.1 463.645 1094.4 463.807 1095.74 463.851C1097.14 463.889 1098.29 463.884 1099.2 463.836C1100.16 463.781 1100.78 463.738 1101.06 463.705L1101.71 464.827C1101.55 464.959 1101.21 465.298 1100.67 465.844C1100.14 466.39 1099.42 467.127 1098.54 468.055L1105.56 473.393L1105.59 473.646L1103.19 475.802L1096.48 470.257C1093.53 473.532 1090.32 477.363 1086.84 481.752C1085.57 483.351 1084.94 484.69 1084.95 485.771C1085 486.877 1085.69 487.964 1087.04 489.032C1087.51 489.405 1088.03 489.715 1088.6 489.962C1089.17 490.209 1089.66 490.394 1090.07 490.517C1090.51 490.609 1090.79 490.677 1090.91 490.72L1090.41 492.315C1090.1 492.323 1089.45 492.298 1088.48 492.24C1087.53 492.206 1086.53 492.123 1085.46 491.991C1084.45 491.852 1083.77 491.646 1083.42 491.372Z" fill="black"/>
</g>
<g id="o" style="mix-blend-mode:darken">
<path d="M1107.37 512.119C1105.71 510.558 1104.62 508.767 1104.11 506.746C1103.59 504.724 1103.65 502.643 1104.29 500.5C1104.99 498.356 1106.23 496.336 1108.01 494.441C1109.92 492.4 1112.11 490.944 1114.58 490.074C1117.1 489.203 1119.58 489.012 1122.03 489.501C1124.51 489.96 1126.69 491.08 1128.59 492.86C1130.22 494.394 1131.29 496.171 1131.81 498.192C1132.36 500.241 1132.28 502.337 1131.58 504.481C1130.94 506.624 1129.73 508.643 1127.95 510.538C1126.04 512.579 1123.82 514.036 1121.3 514.907C1118.84 515.777 1116.37 515.982 1113.89 515.522C1111.44 515.033 1109.27 513.899 1107.37 512.119ZM1110.61 511.126C1112.24 512.659 1114.16 513.221 1116.35 512.813C1118.57 512.375 1120.75 511.019 1122.89 508.745C1124.5 507.024 1125.68 505.247 1126.41 503.413C1127.18 501.55 1127.43 499.787 1127.18 498.125C1126.96 496.491 1126.25 495.112 1125.06 493.99C1123.42 492.456 1121.5 491.909 1119.27 492.346C1117.05 492.784 1114.86 494.155 1112.7 496.458C1111.08 498.179 1109.91 499.956 1109.17 501.79C1108.44 503.624 1108.18 505.358 1108.4 506.993C1108.65 508.598 1109.39 509.976 1110.61 511.126Z" fill="black"/>
</g>
<g id="f" style="mix-blend-mode:darken">
<path d="M1174.23 596.979C1175.73 598.732 1177.33 599.062 1179.06 597.969L1192.73 589.289C1193.52 588.741 1193.9 588.172 1193.85 587.583C1193.87 587.006 1193.51 586.072 1192.78 584.779L1192.96 584.384L1194.91 583.645L1197.39 586.331L1197.6 586.203C1200.5 584.359 1203.33 583.225 1206.1 582.799C1208.88 582.406 1211.39 582.707 1213.63 583.701C1215.9 584.728 1217.78 586.424 1219.28 588.788C1219.92 589.801 1220.44 590.773 1220.84 591.703C1221.26 592.667 1221.54 593.439 1221.67 594.019C1221.86 594.611 1221.96 594.996 1221.98 595.174L1221.59 595.565C1221.35 595.571 1220.81 595.608 1219.95 595.678C1219.15 595.76 1218.27 595.895 1217.3 596.084L1216.79 595.623C1216.81 595.424 1216.8 594.958 1216.76 594.224C1216.74 593.525 1216.59 592.65 1216.3 591.601C1216.04 590.585 1215.59 589.587 1214.97 588.608C1213.75 586.683 1212.06 585.74 1209.91 585.781C1207.79 585.8 1205.12 586.783 1201.9 588.73L1199.39 590.254C1200.5 592.011 1201.47 593.503 1202.3 594.731C1203.12 595.959 1203.68 596.765 1203.97 597.149L1203.92 597.397L1200.91 598.595C1200.71 598.202 1200.24 597.387 1199.5 596.149C1198.79 594.946 1197.89 593.5 1196.82 591.811L1181.44 601.286C1180.5 601.886 1179.92 602.538 1179.7 603.244C1179.54 603.961 1179.74 604.759 1180.3 605.637C1180.81 606.448 1181.25 607.096 1181.6 607.581C1181.98 608.1 1182.22 608.444 1182.33 608.613L1182.19 608.843L1179.79 609.87C1179.49 609.398 1178.96 608.526 1178.2 607.255C1177.44 605.984 1176.67 604.74 1175.9 603.524C1175.15 602.342 1174.39 601.188 1173.63 600.061C1172.86 598.989 1172.35 598.295 1172.1 597.979L1174.23 596.979Z" fill="black"/>
</g>
<g id="i" style="mix-blend-mode:darken">
<path d="M1192.98 624.175C1193.82 625.09 1194.63 625.639 1195.4 625.822C1196.21 625.986 1197.07 625.828 1198 625.346L1211.5 618.285C1213.42 617.284 1214.03 616.128 1213.34 614.817C1213.22 614.569 1213.04 614.321 1212.82 614.075C1212.64 613.81 1212.51 613.651 1212.44 613.599L1214.52 612.783C1215.51 614.16 1216.59 615.536 1217.76 616.911C1218.95 618.321 1219.71 619.228 1220.06 619.633L1219.56 620.233C1218.65 620.303 1216.22 621.215 1212.26 622.968C1208.34 624.703 1204.28 626.663 1200.1 628.85C1199.07 629.388 1198.38 629.928 1198.04 630.471C1197.72 630.995 1197.74 631.594 1198.09 632.268C1198.3 632.658 1198.51 633.021 1198.73 633.357C1198.95 633.693 1199.1 633.932 1199.17 634.073L1199.02 634.291L1196.51 635.061C1196.38 634.723 1196.1 634.102 1195.67 633.197C1195.24 632.293 1194.75 631.309 1194.19 630.245C1193.71 629.323 1193.07 628.306 1192.26 627.194C1191.47 626.117 1190.95 625.419 1190.69 625.102L1192.98 624.175ZM1224.72 613.269C1224.3 612.454 1224.23 611.677 1224.52 610.938C1224.81 610.199 1225.33 609.635 1226.07 609.246C1226.92 608.801 1227.81 608.723 1228.73 609.01C1229.68 609.279 1230.39 609.857 1230.85 610.743C1231.28 611.559 1231.34 612.336 1231.05 613.074C1230.76 613.813 1230.24 614.377 1229.5 614.766C1228.65 615.211 1227.75 615.299 1226.79 615.03C1225.88 614.742 1225.19 614.155 1224.72 613.269Z" fill="black"/>
</g>
<g id="g" style="mix-blend-mode:darken">
<path d="M1237.66 659.512C1237.25 658.858 1236.42 657.342 1235.16 654.965L1234.79 654.86C1233.79 657.017 1232.22 658.545 1230.08 659.444C1228.31 660.188 1226.46 660.38 1224.53 660.02C1222.61 659.697 1220.86 658.891 1219.28 657.604C1217.74 656.301 1216.55 654.654 1215.71 652.663C1215.26 651.594 1214.97 650.499 1214.85 649.379C1214.01 648.733 1213.31 648.31 1212.75 648.112C1212.19 647.914 1211.71 647.9 1211.3 648.071C1210.46 648.427 1210.11 649.247 1210.26 650.529C1210.4 651.812 1210.84 653.732 1211.57 656.29C1212.28 658.811 1212.78 660.878 1213.07 662.493C1213.4 664.092 1213.38 665.596 1213.02 667.007C1212.65 668.417 1211.75 669.425 1210.32 670.029C1208.69 670.711 1206.85 670.706 1204.78 670.014C1202.72 669.359 1200.79 668.156 1198.97 666.405C1197.12 664.706 1195.73 662.732 1194.78 660.483C1193.68 657.864 1193.48 655.52 1194.17 653.451C1194.84 651.433 1196.32 649.944 1198.61 648.983C1199.49 649.22 1200.57 649.632 1201.86 650.219C1203.16 650.842 1204.5 651.558 1205.89 652.366L1206.22 652.227C1205.74 650.17 1205.75 648.431 1206.24 647.011C1206.73 645.591 1207.68 644.56 1209.1 643.919C1211.07 644.784 1212.9 645.836 1214.6 647.077L1214.82 646.984C1215.01 645.384 1215.56 643.959 1216.47 642.71C1217.43 641.482 1218.68 640.543 1220.23 639.892C1222.04 639.132 1223.89 638.896 1225.79 639.182C1227.74 639.49 1229.51 640.224 1231.08 641.385C1232.67 642.583 1233.85 644.104 1234.62 645.948C1234.98 646.796 1235.31 647.894 1235.62 649.24C1235.82 650.24 1236.05 651.034 1236.29 651.624C1237.18 653.206 1238.8 655.518 1241.16 658.56L1241.01 658.819L1237.66 659.512ZM1218.68 652.912C1219.39 654.608 1220.48 655.711 1221.95 656.22C1223.44 656.766 1225.13 656.644 1227.01 655.854C1229.15 654.955 1230.63 653.636 1231.46 651.898C1232.29 650.16 1232.31 648.351 1231.52 646.47C1230.81 644.774 1229.69 643.66 1228.17 643.13C1226.66 642.636 1224.96 642.785 1223.08 643.575C1220.98 644.459 1219.51 645.769 1218.68 647.507C1217.89 649.23 1217.89 651.031 1218.68 652.912ZM1206.77 654.791C1205.54 654.01 1204.33 653.519 1203.16 653.316C1201.95 653.129 1200.89 653.229 1199.97 653.617C1198.71 654.144 1197.94 655.097 1197.66 656.477C1197.33 657.871 1197.54 659.454 1198.28 661.224C1198.87 662.625 1199.69 663.844 1200.73 664.881C1201.75 665.97 1202.85 666.723 1204.03 667.141C1205.2 667.559 1206.27 667.567 1207.22 667.163C1207.96 666.853 1208.44 666.329 1208.65 665.59C1208.86 664.851 1208.81 663.655 1208.51 662.004C1208.22 660.39 1207.64 657.985 1206.77 654.791Z" fill="black"/>
</g>
<g id="m" style="mix-blend-mode:darken">
<path d="M1221.13 688.863C1221.81 689.906 1222.51 690.582 1223.24 690.891C1224.01 691.188 1224.89 691.175 1225.88 690.854L1237.25 687.411C1239.16 686.793 1240.48 685.899 1241.24 684.728C1242.01 683.595 1242.14 682.268 1241.65 680.746C1241.25 679.529 1240.53 678.398 1239.47 677.353C1238.46 676.295 1237.43 675.408 1236.4 674.692C1228.42 676.908 1223.68 678.257 1222.2 678.739C1221.02 679.123 1220.23 679.547 1219.83 680.012C1219.48 680.464 1219.42 681.071 1219.67 681.832C1219.8 682.25 1219.95 682.644 1220.12 683.012C1220.28 683.38 1220.38 683.64 1220.43 683.792L1220.24 683.98L1217.62 684.264C1217.55 683.909 1217.37 683.231 1217.09 682.23C1216.8 681.228 1216.47 680.157 1216.1 679.016C1215.7 677.76 1215.3 676.606 1214.92 675.553C1214.53 674.5 1214.28 673.784 1214.15 673.403L1216.61 672.986C1217.08 674.052 1217.61 674.72 1218.2 674.99C1218.81 675.298 1219.64 675.279 1220.71 674.933L1234.63 670.409C1235.92 669.989 1236.75 669.489 1237.11 668.91C1237.51 668.319 1237.54 667.509 1237.2 666.482L1237 665.854L1237.17 665.609L1239.11 665.168C1239.91 666.718 1240.74 668.236 1241.6 669.722C1242.51 671.234 1243.1 672.2 1243.36 672.62L1243.02 673.11C1242.76 673.108 1242.23 673.155 1241.42 673.25C1240.65 673.333 1239.86 673.485 1239.05 673.706L1238.91 673.876C1243.19 677.197 1245.54 679.524 1245.97 680.855C1246.57 682.681 1246.67 684.352 1246.28 685.867C1245.92 687.369 1245.11 688.622 1243.84 689.624C1245.27 690.672 1246.76 691.892 1248.31 693.282C1249.89 694.66 1250.84 695.825 1251.15 696.776C1251.93 699.173 1251.88 701.291 1251 703.131C1250.13 704.971 1248.57 706.256 1246.33 706.985C1245.95 707.109 1244.16 707.563 1240.97 708.349C1236.91 709.33 1234.1 710.074 1232.54 710.581C1231.36 710.964 1230.58 711.388 1230.18 711.853C1229.82 712.306 1229.77 712.912 1230.01 713.673C1230.15 714.092 1230.3 714.485 1230.46 714.853C1230.62 715.221 1230.73 715.481 1230.78 715.633L1230.59 715.822L1227.97 716.105C1227.89 715.751 1227.71 715.073 1227.43 714.071C1227.15 713.07 1226.82 711.998 1226.45 710.857C1226.13 709.868 1225.73 708.777 1225.26 707.584C1224.76 706.442 1224.43 705.687 1224.27 705.319L1226.7 704.844C1227.25 705.886 1227.85 706.554 1228.49 706.85C1229.13 707.146 1229.99 707.121 1231.05 706.775L1242.43 703.332C1244.33 702.714 1245.66 701.819 1246.41 700.649C1247.18 699.516 1247.32 698.189 1246.82 696.667C1246.18 694.689 1244.48 692.696 1241.73 690.69L1227.37 694.66C1226.27 695.018 1225.5 695.436 1225.06 695.914C1224.67 696.379 1224.59 696.973 1224.82 697.696C1224.96 698.114 1225.11 698.507 1225.27 698.875C1225.43 699.243 1225.54 699.503 1225.59 699.656L1225.4 699.844L1222.79 700.185C1222.72 699.83 1222.55 699.171 1222.28 698.207C1222.01 697.244 1221.68 696.192 1221.31 695.05C1220.99 694.061 1220.53 692.951 1219.92 691.719C1219.32 690.526 1218.92 689.751 1218.72 689.395L1221.13 688.863Z" fill="black"/>
</g>
<g id="a_2" style="mix-blend-mode:darken">
<path d="M1231.88 741.925C1231.14 738.771 1232.31 736.668 1235.39 735.617L1235.39 735.369C1233.66 734.296 1232.25 733.271 1231.16 732.295C1230.07 731.357 1229.46 730.596 1229.33 730.012C1228.82 727.831 1229.08 725.88 1230.11 724.159C1231.15 722.437 1232.71 721.329 1234.82 720.836C1235.95 720.571 1237 720.611 1237.99 720.955C1238.98 721.338 1239.72 721.965 1240.22 722.836L1245.86 733.222L1248.44 732.678C1250.39 732.221 1251.8 731.417 1252.68 730.266C1253.56 729.114 1253.81 727.721 1253.43 726.085C1253.17 724.995 1252.65 723.905 1251.86 722.817C1251.07 721.728 1250.07 720.71 1248.86 719.761L1248.97 719.427L1251.32 718.137C1252.8 719.721 1254.16 721.332 1255.41 722.971C1256.7 724.639 1257.45 725.882 1257.64 726.7C1258.23 729.231 1258.04 731.372 1257.05 733.124C1256.06 734.875 1254.38 736.03 1252.01 736.587C1251.15 736.788 1249.37 737.063 1246.65 737.411C1242.27 737.987 1239.49 738.413 1238.33 738.687C1237.47 738.888 1236.86 739.257 1236.49 739.795C1236.12 740.333 1236.03 740.972 1236.2 741.712C1236.35 742.335 1236.63 742.946 1237.06 743.544C1237.53 744.133 1238 744.576 1238.48 744.874L1237.74 745.911C1236.63 745.555 1235.5 745.02 1234.34 744.304C1233.24 743.619 1232.41 742.826 1231.88 741.925ZM1233.53 730.074C1233.71 730.814 1234.16 731.611 1234.89 732.466C1235.68 733.35 1236.57 734.106 1237.58 734.732L1243.61 733.626L1239.35 726.244C1238.74 725.196 1237.79 724.824 1236.5 725.125C1235.37 725.39 1234.52 725.979 1233.96 726.893C1233.4 727.845 1233.26 728.905 1233.53 730.074Z" fill="black"/>
</g>
<g id="p" style="mix-blend-mode:darken">
<path d="M1230.12 815.742C1230.22 816.624 1230.39 817.268 1230.62 817.673C1230.85 818.118 1231.24 818.426 1231.8 818.598C1232.36 818.77 1233.21 818.868 1234.37 818.892C1236.05 818.927 1237.49 818.977 1238.69 819.042L1244.33 819.22L1262.21 819.595C1263.57 819.623 1264.51 819.423 1265.04 818.994C1265.61 818.566 1265.9 817.812 1265.93 816.732L1265.94 816.072L1266.18 815.897L1268.16 816.119C1268.4 817.844 1268.69 819.551 1269.01 821.238C1269.38 822.966 1269.61 824.071 1269.72 824.553L1269.24 824.903C1269.04 824.859 1268.6 824.75 1267.92 824.576C1267.29 824.442 1266.65 824.329 1266.01 824.236L1265.58 824.467C1268.11 828.28 1269.36 830.627 1269.34 831.507C1269.29 833.786 1268.71 835.795 1267.59 837.532C1266.51 839.269 1265.01 840.598 1263.07 841.518C1261.13 842.437 1258.92 842.871 1256.44 842.819C1253.6 842.76 1250.99 842.025 1248.62 840.615C1246.25 839.205 1244.37 837.345 1242.98 835.036C1241.63 832.727 1240.98 830.233 1241.03 827.553C1241.05 826.673 1241.11 825.794 1241.21 824.916C1241.27 824.077 1241.32 823.498 1241.37 823.179L1235.19 823.11C1233.35 823.071 1232.1 823.225 1231.46 823.572C1230.77 823.957 1230.41 824.71 1230.39 825.83L1230.41 827.871L1230.22 827.987L1227.95 827.459L1228.07 821.761C1228.1 820.321 1228.07 818.98 1227.98 817.738C1227.88 816.535 1227.82 815.754 1227.79 815.393L1230.12 815.742ZM1244.3 829.302C1244.24 831.981 1245.1 834.1 1246.87 835.657C1248.67 837.255 1251.16 838.088 1254.32 838.154C1256.32 838.196 1258.14 837.874 1259.8 837.188C1261.45 836.543 1262.77 835.61 1263.76 834.391C1264.74 833.211 1265.25 831.901 1265.28 830.462C1265.3 829.662 1265.04 828.676 1264.5 827.505C1264.01 826.334 1263.33 825.22 1262.47 824.161C1257.24 823.732 1251.6 823.454 1245.56 823.327C1245.23 824.12 1244.93 825.054 1244.67 826.129C1244.44 827.245 1244.32 828.302 1244.3 829.302Z" fill="black"/>
</g>
<g id="h_2" style="mix-blend-mode:darken">
<path d="M1243.24 851.004C1243.24 852.17 1243.45 852.997 1243.88 853.485C1244.31 854.012 1245.08 854.335 1246.19 854.452L1277.94 857.788C1279.01 857.901 1279.81 857.804 1280.32 857.496C1280.88 857.192 1281.2 856.662 1281.27 855.906L1281.41 854.653L1281.61 854.434L1283.49 854.873C1283.51 856.242 1283.59 857.799 1283.73 859.543C1283.91 861.291 1284.1 862.739 1284.3 863.886L1283.48 864.163C1283.08 863.838 1280.98 863.336 1277.19 862.656C1273.39 862.016 1268.72 861.324 1263.17 860.579C1265.79 865.44 1267.03 868.587 1266.88 870.019C1266.61 872.605 1265.72 874.543 1264.22 875.833C1262.72 877.123 1260.75 877.64 1258.32 877.385C1257.53 877.302 1255.71 876.97 1252.88 876.39C1248.26 875.543 1245.4 875.061 1244.28 874.944C1243.13 874.823 1242.26 874.892 1241.67 875.152C1241.12 875.416 1240.8 875.925 1240.72 876.681L1240.62 878.782L1240.37 878.877L1237.85 878.13C1238.25 875.517 1238.49 873.753 1238.59 872.838C1238.76 871.246 1238.74 869.173 1238.52 866.616L1240.94 867.112C1241.14 868.339 1241.5 869.242 1242.05 869.822C1242.63 870.406 1243.44 870.753 1244.47 870.861L1256.25 872.461C1258.24 872.67 1259.81 872.394 1260.98 871.631C1262.14 870.909 1262.81 869.752 1262.97 868.161C1263.08 867.166 1262.89 865.899 1262.41 864.361C1261.92 862.862 1261.28 861.487 1260.49 860.237C1256.05 859.65 1251.22 859.082 1246.01 858.534C1244.77 858.405 1243.88 858.472 1243.33 858.736C1242.82 859.004 1242.52 859.536 1242.44 860.331L1242.34 862.432L1242.09 862.527L1239.58 861.72C1239.99 858.988 1240.24 857.184 1240.33 856.309C1240.51 854.598 1240.68 852.625 1240.83 850.389L1243.24 851.004Z" fill="black"/>
</g>
<g id="o_2" style="mix-blend-mode:darken">
<path d="M1233.85 897.819C1234.28 895.579 1235.21 893.7 1236.64 892.181C1238.07 890.662 1239.86 889.599 1242.01 888.991C1244.19 888.431 1246.56 888.394 1249.12 888.881C1251.87 889.406 1254.27 890.475 1256.32 892.088C1258.41 893.748 1259.9 895.743 1260.8 898.073C1261.74 900.411 1261.97 902.856 1261.48 905.41C1261.06 907.61 1260.13 909.47 1258.7 910.989C1257.27 912.547 1255.46 913.607 1253.27 914.168C1251.12 914.775 1248.77 914.835 1246.21 914.348C1243.46 913.823 1241.05 912.731 1238.96 911.071C1236.91 909.457 1235.41 907.482 1234.47 905.145C1233.57 902.815 1233.37 900.373 1233.85 897.819ZM1236.43 900.02C1236.01 902.22 1236.56 904.137 1238.08 905.771C1239.64 907.413 1241.95 908.526 1245.01 909.11C1247.33 909.553 1249.46 909.593 1251.4 909.23C1253.39 908.875 1255.01 908.147 1256.28 907.045C1257.54 905.983 1258.33 904.646 1258.63 903.035C1259.05 900.835 1258.48 898.914 1256.92 897.272C1255.36 895.631 1253.03 894.514 1249.93 893.922C1247.61 893.48 1245.48 893.44 1243.54 893.802C1241.59 894.165 1239.99 894.877 1238.73 895.94C1237.51 897.01 1236.74 898.37 1236.43 900.02Z" fill="black"/>
</g>
<g id="t_3" style="mix-blend-mode:darken">
<path d="M1224.92 935.658C1225.65 933.038 1226.69 931.334 1228.03 930.545C1229.41 929.768 1231.37 929.734 1233.91 930.444L1248.13 934.413C1249.17 934.704 1249.97 934.677 1250.52 934.333C1251.07 933.989 1251.55 933.187 1251.94 931.926L1252.35 931.792L1254 932.565C1254.23 933.833 1254.58 935.094 1255.06 936.35C1255.57 937.654 1256.02 938.715 1256.42 939.531C1256.84 940.397 1257.12 940.953 1257.26 941.199L1256.48 942.226C1256.29 942.133 1255.85 941.946 1255.14 941.665C1254.43 941.384 1253.47 941.013 1252.27 940.553L1250.07 949.097L1249.85 949.222L1246.93 947.846L1249.45 939.515C1245.28 938.062 1240.51 936.583 1235.11 935.077C1233.15 934.528 1231.67 934.469 1230.68 934.898C1229.67 935.365 1228.94 936.427 1228.48 938.084C1228.32 938.662 1228.23 939.261 1228.23 939.882C1228.22 940.503 1228.24 941.028 1228.29 941.456C1228.37 941.895 1228.42 942.178 1228.42 942.304L1226.76 942.462C1226.63 942.178 1226.4 941.575 1226.08 940.653C1225.74 939.771 1225.43 938.811 1225.14 937.774C1224.88 936.787 1224.8 936.081 1224.92 935.658Z" fill="black"/>
</g>
<g id="o_3" style="mix-blend-mode:darken">
<path d="M1215.08 965.777C1215.87 963.64 1217.1 961.941 1218.76 960.682C1220.43 959.423 1222.37 958.673 1224.59 958.433C1226.84 958.244 1229.18 958.603 1231.62 959.51C1234.24 960.486 1236.43 961.94 1238.19 963.874C1239.97 965.859 1241.11 968.075 1241.61 970.522C1242.14 972.983 1241.96 975.432 1241.05 977.869C1240.27 979.968 1239.05 981.648 1237.38 982.907C1235.71 984.204 1233.75 984.946 1231.5 985.135C1229.28 985.375 1226.95 985.042 1224.51 984.136C1221.88 983.16 1219.68 981.679 1217.9 979.694C1216.15 977.761 1215 975.564 1214.46 973.103C1213.97 970.656 1214.17 968.213 1215.08 965.777ZM1217.25 968.376C1216.47 970.475 1216.69 972.458 1217.92 974.322C1219.18 976.201 1221.27 977.684 1224.2 978.771C1226.41 979.594 1228.5 979.989 1230.48 979.955C1232.49 979.936 1234.22 979.488 1235.65 978.614C1237.07 977.777 1238.07 976.589 1238.64 975.052C1239.42 972.953 1239.18 970.964 1237.92 969.085C1236.65 967.207 1234.54 965.717 1231.58 964.615C1229.36 963.792 1227.27 963.398 1225.29 963.431C1223.32 963.465 1221.62 963.9 1220.2 964.737C1218.82 965.588 1217.83 966.801 1217.25 968.376Z" fill="black"/>
</g>
<g id="s_2" style="mix-blend-mode:darken">
<path d="M1201.56 998.187C1202.11 997.029 1202.7 996.003 1203.34 995.111C1203.93 994.238 1204.44 993.573 1204.88 993.115C1205.31 992.658 1205.6 992.373 1205.74 992.263L1206.2 992.279C1206.69 992.643 1207.75 993.297 1209.39 994.243C1211.02 995.188 1212.28 995.891 1213.17 996.353L1212.55 998.381C1210.16 997.257 1208.29 996.863 1206.94 997.2C1205.58 997.536 1204.46 998.664 1203.55 1000.58C1202.91 1001.96 1202.67 1003.26 1202.84 1004.49C1203.01 1005.72 1203.55 1006.55 1204.46 1006.98C1205.36 1007.4 1206.38 1007.35 1207.51 1006.82C1208.66 1006.35 1210.5 1005.18 1213.01 1003.31C1215.03 1001.74 1216.81 1000.74 1218.34 1000.31C1219.86 999.88 1221.28 999.971 1222.58 1000.58C1224.03 1001.27 1225.13 1002.31 1225.88 1003.73C1226.66 1005.16 1227.03 1006.79 1226.96 1008.61C1226.93 1010.46 1226.48 1012.32 1225.59 1014.2C1225.18 1015.07 1224.72 1015.87 1224.2 1016.6C1223.72 1017.34 1223.28 1017.93 1222.9 1018.37C1222.52 1018.81 1222.27 1019.09 1222.17 1019.22L1221.85 1019.2C1221.52 1018.96 1220.76 1018.41 1219.58 1017.54C1218.43 1016.69 1217.14 1015.86 1215.71 1015.05L1216.49 1012.97C1216.6 1013.02 1216.81 1013.14 1217.12 1013.33C1217.42 1013.52 1217.72 1013.68 1218.01 1013.82C1219.32 1014.43 1220.43 1014.51 1221.35 1014.06C1222.29 1013.66 1223.12 1012.69 1223.85 1011.13C1224.43 1009.9 1224.64 1008.71 1224.47 1007.57C1224.28 1006.47 1223.77 1005.72 1222.94 1005.33C1222.07 1004.92 1221.08 1004.9 1219.98 1005.26C1218.87 1005.67 1217.48 1006.49 1215.83 1007.75C1212.89 1009.95 1210.64 1011.32 1209.06 1011.86C1207.5 1012.45 1206.03 1012.42 1204.65 1011.77C1203.28 1011.13 1202.2 1010.07 1201.44 1008.6C1200.67 1007.14 1200.29 1005.46 1200.3 1003.56C1200.32 1001.71 1200.75 999.924 1201.56 998.187Z" fill="black"/>
</g>
<g id="h_3" style="mix-blend-mode:darken">
<path d="M1194.02 1020.54C1193.55 1021.61 1193.41 1022.45 1193.6 1023.07C1193.78 1023.73 1194.35 1024.34 1195.32 1024.9L1222.96 1040.86C1223.9 1041.4 1224.66 1041.63 1225.26 1041.56C1225.89 1041.51 1226.4 1041.15 1226.78 1040.49L1227.41 1039.4L1227.68 1039.28L1229.22 1040.45C1228.68 1041.71 1228.12 1043.16 1227.54 1044.81C1226.99 1046.48 1226.57 1047.88 1226.29 1049.01L1225.44 1048.93C1225.19 1048.47 1223.48 1047.16 1220.3 1045C1217.09 1042.87 1213.1 1040.34 1208.33 1037.4C1208.75 1042.91 1208.61 1046.28 1207.89 1047.53C1206.59 1049.78 1204.99 1051.19 1203.09 1051.76C1201.19 1052.33 1199.19 1052 1197.07 1050.78C1196.38 1050.38 1194.86 1049.34 1192.5 1047.66C1188.63 1045 1186.21 1043.4 1185.24 1042.84C1184.23 1042.26 1183.41 1041.97 1182.76 1041.96C1182.15 1041.98 1181.66 1042.32 1181.28 1042.98L1180.33 1044.86L1180.06 1044.84L1178.07 1043.13C1179.49 1040.91 1180.44 1039.4 1180.9 1038.6C1181.7 1037.21 1182.52 1035.31 1183.36 1032.89L1185.37 1034.32C1185.05 1035.52 1185.02 1036.5 1185.28 1037.25C1185.57 1038.02 1186.17 1038.66 1187.07 1039.18L1197.18 1045.44C1198.91 1046.44 1200.46 1046.83 1201.84 1046.6C1203.19 1046.42 1204.27 1045.63 1205.07 1044.24C1205.57 1043.38 1205.92 1042.14 1206.1 1040.54C1206.27 1038.97 1206.24 1037.46 1206.02 1035.99C1202.2 1033.65 1198.03 1031.17 1193.49 1028.55C1192.41 1027.93 1191.57 1027.63 1190.96 1027.64C1190.39 1027.68 1189.9 1028.05 1189.5 1028.74L1188.55 1030.62L1188.28 1030.6L1186.32 1028.84C1187.8 1026.51 1188.77 1024.97 1189.21 1024.21C1190.07 1022.72 1191.02 1020.98 1192.07 1019L1194.02 1020.54Z" fill="black"/>
</g>
<g id="o_4" style="mix-blend-mode:darken">
<path d="M1166.41 1059.49C1167.71 1057.62 1169.32 1056.28 1171.24 1055.48C1173.17 1054.67 1175.24 1054.43 1177.45 1054.75C1179.67 1055.12 1181.85 1056.05 1183.99 1057.54C1186.29 1059.13 1188.05 1061.09 1189.27 1063.4C1190.5 1065.76 1191.05 1068.19 1190.92 1070.69C1190.83 1073.2 1190.04 1075.53 1188.56 1077.66C1187.28 1079.5 1185.68 1080.83 1183.75 1081.63C1181.81 1082.47 1179.72 1082.7 1177.5 1082.33C1175.28 1082.01 1173.11 1081.1 1170.98 1079.62C1168.68 1078.02 1166.91 1076.04 1165.68 1073.68C1164.46 1071.37 1163.9 1068.95 1163.99 1066.44C1164.12 1063.94 1164.92 1061.63 1166.41 1059.49ZM1167.86 1062.55C1166.58 1064.39 1166.31 1066.37 1167.03 1068.48C1167.79 1070.61 1169.45 1072.57 1172.01 1074.35C1173.95 1075.7 1175.88 1076.6 1177.8 1077.06C1179.75 1077.54 1181.53 1077.53 1183.14 1077.04C1184.73 1076.59 1185.99 1075.68 1186.92 1074.34C1188.2 1072.5 1188.46 1070.51 1187.7 1068.38C1186.95 1066.24 1185.27 1064.27 1182.68 1062.47C1180.74 1061.12 1178.81 1060.22 1176.89 1059.76C1174.96 1059.3 1173.21 1059.3 1171.63 1059.76C1170.07 1060.24 1168.82 1061.17 1167.86 1062.55Z" fill="black"/>
</g>
<g id="p_2" style="mix-blend-mode:darken">
<path d="M1144.01 1071.52C1143.55 1072.27 1143.28 1072.88 1143.21 1073.34C1143.11 1073.84 1143.23 1074.32 1143.56 1074.8C1143.89 1075.28 1144.5 1075.89 1145.39 1076.63C1146.69 1077.7 1147.78 1078.64 1148.68 1079.43L1152.99 1083.07L1166.77 1094.47C1167.81 1095.34 1168.68 1095.77 1169.36 1095.76C1170.07 1095.78 1170.77 1095.37 1171.46 1094.54L1171.88 1094.03L1172.18 1094.04L1173.59 1095.44C1172.71 1096.95 1171.87 1098.46 1171.08 1099.99C1170.29 1101.57 1169.79 1102.58 1169.58 1103.02L1168.98 1103C1168.85 1102.84 1168.57 1102.48 1168.15 1101.92C1167.74 1101.42 1167.31 1100.94 1166.86 1100.47L1166.39 1100.39C1165.99 1104.94 1165.52 1107.56 1164.96 1108.23C1163.5 1109.99 1161.8 1111.2 1159.85 1111.87C1157.92 1112.56 1155.92 1112.67 1153.82 1112.18C1151.73 1111.7 1149.73 1110.67 1147.82 1109.09C1145.63 1107.28 1144.05 1105.08 1143.06 1102.51C1142.08 1099.93 1141.76 1097.3 1142.11 1094.63C1142.48 1091.98 1143.52 1089.62 1145.23 1087.56C1145.79 1086.88 1146.38 1086.23 1147.01 1085.6C1147.57 1084.98 1147.97 1084.55 1148.21 1084.33L1143.41 1080.44C1141.99 1079.27 1140.92 1078.62 1140.2 1078.49C1139.42 1078.36 1138.67 1078.73 1137.96 1079.59L1136.7 1081.2L1136.49 1081.18L1135.04 1079.36L1138.67 1074.97C1139.59 1073.86 1140.4 1072.78 1141.1 1071.75C1141.77 1070.75 1142.2 1070.1 1142.4 1069.8L1144.01 1071.52ZM1146.7 1090.95C1144.99 1093.02 1144.35 1095.21 1144.77 1097.53C1145.19 1099.9 1146.62 1102.1 1149.06 1104.11C1150.6 1105.39 1152.23 1106.27 1153.95 1106.76C1155.65 1107.28 1157.26 1107.37 1158.79 1107.03C1160.3 1106.72 1161.51 1106 1162.42 1104.89C1162.93 1104.28 1163.34 1103.34 1163.65 1102.09C1163.99 1100.87 1164.15 1099.57 1164.14 1098.21C1160.3 1094.63 1156.06 1090.91 1151.41 1087.06C1150.65 1087.47 1149.83 1088.02 1148.96 1088.69C1148.09 1089.43 1147.34 1090.18 1146.7 1090.95Z" fill="black"/>
</g>
<g id="g_2" style="mix-blend-mode:darken">
<path d="M1071.48 1190.15C1072.03 1189.61 1073.31 1188.45 1075.34 1186.68L1075.36 1186.3C1073.03 1185.81 1071.18 1184.63 1069.82 1182.76C1068.69 1181.2 1068.08 1179.44 1067.99 1177.48C1067.87 1175.55 1068.25 1173.66 1069.14 1171.82C1070.06 1170.02 1071.39 1168.49 1073.14 1167.22C1074.08 1166.53 1075.08 1166.01 1076.14 1165.63C1076.58 1164.67 1076.83 1163.89 1076.89 1163.3C1076.96 1162.71 1076.86 1162.24 1076.6 1161.88C1076.06 1161.14 1075.18 1160.98 1073.97 1161.42C1072.75 1161.86 1070.99 1162.72 1068.66 1164.02C1066.37 1165.29 1064.47 1166.24 1062.97 1166.89C1061.48 1167.58 1060.01 1167.9 1058.56 1167.87C1057.1 1167.84 1055.92 1167.19 1055 1165.93C1053.96 1164.51 1053.55 1162.71 1053.75 1160.54C1053.92 1158.39 1054.65 1156.23 1055.94 1154.05C1057.17 1151.87 1058.77 1150.06 1060.75 1148.63C1063.04 1146.96 1065.28 1146.23 1067.45 1146.43C1069.57 1146.62 1071.36 1147.72 1072.81 1149.73C1072.79 1150.64 1072.63 1151.79 1072.35 1153.17C1072.04 1154.59 1071.65 1156.06 1071.18 1157.59L1071.39 1157.88C1073.29 1156.95 1074.98 1156.56 1076.48 1156.71C1077.97 1156.86 1079.19 1157.55 1080.14 1158.79C1079.75 1160.9 1079.14 1162.93 1078.32 1164.86L1078.46 1165.05C1080.07 1164.88 1081.58 1165.09 1083 1165.69C1084.42 1166.34 1085.62 1167.35 1086.6 1168.7C1087.76 1170.29 1088.41 1172.04 1088.56 1173.96C1088.71 1175.93 1088.4 1177.81 1087.63 1179.61C1086.82 1181.43 1085.61 1182.92 1083.99 1184.1C1083.25 1184.64 1082.26 1185.21 1081.02 1185.82C1080.09 1186.24 1079.37 1186.65 1078.85 1187.02C1077.51 1188.24 1075.63 1190.35 1073.21 1193.34L1072.92 1193.26L1071.48 1190.15ZM1073.57 1170.16C1072.08 1171.24 1071.26 1172.56 1071.1 1174.11C1070.91 1175.68 1071.41 1177.3 1072.61 1178.95C1073.97 1180.82 1075.6 1181.97 1077.48 1182.38C1079.36 1182.79 1081.13 1182.4 1082.78 1181.2C1084.27 1180.12 1085.1 1178.78 1085.26 1177.17C1085.4 1175.59 1084.87 1173.97 1083.67 1172.32C1082.33 1170.48 1080.72 1169.35 1078.84 1168.94C1076.98 1168.55 1075.22 1168.96 1073.57 1170.16ZM1069.03 1159C1069.5 1157.62 1069.71 1156.33 1069.64 1155.15C1069.54 1153.93 1069.2 1152.92 1068.61 1152.11C1067.81 1151.01 1066.71 1150.48 1065.3 1150.51C1063.87 1150.51 1062.38 1151.08 1060.82 1152.21C1059.59 1153.1 1058.59 1154.17 1057.82 1155.43C1057 1156.67 1056.51 1157.91 1056.37 1159.15C1056.24 1160.39 1056.47 1161.43 1057.08 1162.27C1057.55 1162.92 1058.17 1163.26 1058.94 1163.29C1059.71 1163.33 1060.86 1163.01 1062.4 1162.34C1063.9 1161.69 1066.11 1160.58 1069.03 1159Z" fill="black"/>
</g>
<g id="s_3" style="mix-blend-mode:darken">
<path d="M1039.18 1179.67C1040.27 1179.01 1041.33 1178.48 1042.36 1178.09C1043.33 1177.69 1044.13 1177.42 1044.74 1177.28C1045.36 1177.14 1045.76 1177.06 1045.94 1177.05L1046.31 1177.31C1046.52 1177.89 1047.04 1179.02 1047.87 1180.71C1048.71 1182.4 1049.37 1183.69 1049.86 1184.56L1048.22 1185.91C1046.85 1183.65 1045.51 1182.29 1044.2 1181.82C1042.88 1181.35 1041.32 1181.67 1039.51 1182.77C1038.21 1183.55 1037.29 1184.51 1036.75 1185.63C1036.21 1186.75 1036.2 1187.74 1036.72 1188.59C1037.24 1189.45 1038.12 1189.97 1039.35 1190.15C1040.57 1190.4 1042.75 1190.43 1045.88 1190.27C1048.43 1190.08 1050.46 1190.23 1051.97 1190.72C1053.48 1191.21 1054.61 1192.07 1055.36 1193.3C1056.18 1194.67 1056.52 1196.15 1056.36 1197.74C1056.22 1199.37 1055.62 1200.92 1054.56 1202.41C1053.52 1203.93 1052.11 1205.23 1050.33 1206.31C1049.51 1206.8 1048.68 1207.21 1047.84 1207.53C1047.03 1207.88 1046.34 1208.14 1045.78 1208.29C1045.21 1208.44 1044.85 1208.54 1044.7 1208.59L1044.44 1208.4C1044.3 1208.01 1043.98 1207.13 1043.47 1205.76C1042.99 1204.41 1042.37 1203.01 1041.62 1201.55L1043.43 1200.24C1043.49 1200.34 1043.6 1200.56 1043.75 1200.89C1043.9 1201.22 1044.06 1201.52 1044.23 1201.79C1044.97 1203.02 1045.85 1203.71 1046.87 1203.84C1047.87 1204.03 1049.11 1203.68 1050.58 1202.78C1051.74 1202.08 1052.57 1201.21 1053.06 1200.16C1053.51 1199.14 1053.5 1198.23 1053.03 1197.44C1052.53 1196.62 1051.72 1196.06 1050.6 1195.76C1049.45 1195.47 1047.84 1195.4 1045.76 1195.53C1042.1 1195.74 1039.46 1195.63 1037.85 1195.2C1036.22 1194.83 1035.02 1194 1034.23 1192.7C1033.44 1191.4 1033.13 1189.92 1033.3 1188.28C1033.48 1186.63 1034.09 1185.02 1035.15 1183.44C1036.19 1181.92 1037.53 1180.66 1039.18 1179.67Z" fill="black"/>
</g>
<g id="a_3" style="mix-blend-mode:darken">
<path d="M999.661 1201.06C1002.56 1199.62 1004.88 1200.27 1006.61 1203.03L1006.85 1202.98C1007.5 1201.05 1008.17 1199.44 1008.87 1198.16C1009.54 1196.89 1010.14 1196.12 1010.68 1195.86C1012.68 1194.86 1014.64 1194.67 1016.56 1195.28C1018.47 1195.9 1019.9 1197.17 1020.86 1199.1C1021.38 1200.14 1021.58 1201.18 1021.47 1202.22C1021.33 1203.27 1020.89 1204.14 1020.15 1204.82L1011.33 1212.68L1012.45 1215.07C1013.34 1216.86 1014.44 1218.06 1015.76 1218.65C1017.09 1219.25 1018.5 1219.17 1020 1218.42C1021.01 1217.92 1021.95 1217.17 1022.83 1216.15C1023.71 1215.13 1024.47 1213.93 1025.12 1212.53L1025.47 1212.56L1027.26 1214.55C1026.06 1216.36 1024.8 1218.05 1023.49 1219.64C1022.16 1221.28 1021.12 1222.29 1020.37 1222.66C1018.04 1223.82 1015.91 1224.12 1013.98 1223.56C1012.05 1223 1010.54 1221.62 1009.46 1219.44C1009.06 1218.65 1008.39 1216.98 1007.43 1214.41C1005.87 1210.28 1004.82 1207.67 1004.29 1206.6C1003.9 1205.81 1003.4 1205.3 1002.79 1205.06C1002.18 1204.83 1001.54 1204.88 1000.86 1205.22C1000.28 1205.5 999.755 1205.92 999.27 1206.48C998.803 1207.06 998.48 1207.63 998.299 1208.16L997.12 1207.68C997.213 1206.51 997.476 1205.29 997.909 1204C998.324 1202.77 998.908 1201.79 999.661 1201.06ZM1011.58 1199.96C1010.9 1200.3 1010.22 1200.93 1009.56 1201.84C1008.88 1202.8 1008.35 1203.84 1007.97 1204.97L1010.42 1210.59L1016.64 1204.75C1017.51 1203.92 1017.66 1202.91 1017.07 1201.72C1016.56 1200.68 1015.79 1199.99 1014.77 1199.65C1013.72 1199.33 1012.65 1199.43 1011.58 1199.96Z" fill="black"/>
</g>
<g id="p_3" style="mix-blend-mode:darken">
<path d="M982.743 1196.59C981.969 1197.03 981.44 1197.43 981.156 1197.8C980.836 1198.18 980.704 1198.67 980.761 1199.25C980.819 1199.83 981.061 1200.65 981.488 1201.73C982.106 1203.29 982.618 1204.64 983.022 1205.77L985.043 1211.04L991.625 1227.66C992.126 1228.93 992.676 1229.72 993.277 1230.04C993.892 1230.4 994.702 1230.38 995.706 1229.98L996.32 1229.74L996.575 1229.9L997.137 1231.8C995.641 1232.7 994.178 1233.62 992.748 1234.57C991.296 1235.58 990.369 1236.23 989.967 1236.51L989.456 1236.2C989.419 1236 989.35 1235.55 989.249 1234.86C989.125 1234.22 988.982 1233.59 988.821 1232.97L988.443 1232.66C985.904 1236.47 984.226 1238.53 983.408 1238.85C981.288 1239.69 979.211 1239.93 977.177 1239.58C975.158 1239.26 973.348 1238.38 971.749 1236.95C970.149 1235.52 968.893 1233.65 967.98 1231.34C966.935 1228.7 966.603 1226.02 966.984 1223.29C967.365 1220.55 968.35 1218.1 969.94 1215.92C971.544 1213.78 973.592 1212.22 976.084 1211.23C976.902 1210.9 977.735 1210.62 978.583 1210.37C979.379 1210.1 979.933 1209.92 980.245 1209.84L977.914 1204.12C977.237 1202.4 976.613 1201.32 976.043 1200.86C975.42 1200.37 974.589 1200.33 973.547 1200.75L971.673 1201.55L971.495 1201.43L971.102 1199.13L976.402 1197.04C977.74 1196.51 978.964 1195.96 980.073 1195.39C981.145 1194.83 981.84 1194.47 982.16 1194.3L982.743 1196.59ZM975.737 1214.92C973.245 1215.9 971.624 1217.51 970.873 1219.75C970.1 1222.03 970.295 1224.64 971.459 1227.58C972.195 1229.44 973.2 1231 974.473 1232.26C975.709 1233.53 977.08 1234.39 978.586 1234.82C980.055 1235.28 981.459 1235.24 982.798 1234.71C983.542 1234.41 984.35 1233.79 985.223 1232.84C986.11 1231.93 986.875 1230.88 987.518 1229.68C985.886 1224.69 983.959 1219.38 981.735 1213.77C980.874 1213.76 979.897 1213.85 978.804 1214.02C977.689 1214.25 976.667 1214.55 975.737 1214.92Z" fill="black"/>
</g>
<g id="c" style="mix-blend-mode:darken">
<path d="M870.651 1238.21C874.421 1237.73 877.588 1238.54 880.151 1240.64C882.713 1242.73 884.248 1245.78 884.754 1249.79C885.11 1252.61 884.838 1255.24 883.939 1257.7C883.004 1260.19 881.588 1262.23 879.69 1263.8C877.757 1265.41 875.501 1266.38 872.921 1266.71C871.81 1266.85 870.728 1266.9 869.677 1266.88C868.625 1266.85 867.769 1266.77 867.109 1266.66C866.414 1266.58 865.982 1266.52 865.814 1266.46L865.582 1266.06C865.597 1265.86 865.656 1265.37 865.759 1264.59C865.828 1263.85 865.883 1262.86 865.926 1261.6C865.974 1260.39 865.93 1259.08 865.795 1257.69L868.213 1257.2L868.446 1259.05C868.631 1260.52 869.236 1261.63 870.259 1262.39C871.247 1263.19 872.475 1263.5 873.944 1263.31C876.364 1263.01 878.119 1261.9 879.208 1259.99C880.302 1258.11 880.649 1255.59 880.248 1252.42C879.812 1248.96 878.751 1246.32 877.067 1244.47C875.348 1242.67 873.239 1241.93 870.738 1242.25C869.746 1242.37 868.772 1242.64 867.815 1243.04C866.863 1243.48 866.067 1243.89 865.427 1244.25C864.793 1244.65 864.404 1244.92 864.26 1245.06L863.888 1244.99L863 1243.23C863.253 1242.99 863.815 1242.5 864.687 1241.74C865.52 1240.99 866.514 1240.24 867.669 1239.49C868.784 1238.75 869.778 1238.32 870.651 1238.21Z" fill="black"/>
</g>
<g id="s_4" style="mix-blend-mode:darken">
<path d="M838.771 1240.86C840.05 1240.8 841.233 1240.85 842.32 1241.01C843.366 1241.12 844.193 1241.27 844.801 1241.44C845.409 1241.62 845.794 1241.74 845.957 1241.82L846.155 1242.23C846.06 1242.83 845.972 1244.08 845.891 1245.96C845.81 1247.85 845.77 1249.29 845.772 1250.29L843.687 1250.68C843.576 1248.04 843.058 1246.2 842.134 1245.16C841.21 1244.12 839.688 1243.64 837.57 1243.73C836.051 1243.79 834.787 1244.19 833.776 1244.91C832.766 1245.63 832.281 1246.49 832.323 1247.49C832.365 1248.49 832.882 1249.37 833.875 1250.13C834.829 1250.93 836.716 1252.01 839.536 1253.37C841.862 1254.44 843.57 1255.55 844.66 1256.7C845.749 1257.86 846.324 1259.16 846.384 1260.59C846.451 1262.19 846.032 1263.65 845.126 1264.97C844.222 1266.33 842.946 1267.4 841.298 1268.19C839.651 1269.02 837.789 1269.48 835.711 1269.57C834.751 1269.61 833.829 1269.57 832.943 1269.44C832.059 1269.36 831.333 1269.25 830.767 1269.12C830.201 1268.98 829.837 1268.89 829.676 1268.86L829.543 1268.57C829.606 1268.16 829.748 1267.24 829.967 1265.79C830.188 1264.38 830.324 1262.85 830.376 1261.2L832.586 1260.93C832.591 1261.05 832.581 1261.29 832.556 1261.65C832.531 1262.02 832.526 1262.36 832.539 1262.68C832.599 1264.11 833.043 1265.14 833.869 1265.74C834.657 1266.39 835.91 1266.68 837.628 1266.61C838.987 1266.55 840.133 1266.18 841.065 1265.5C841.957 1264.82 842.384 1264.02 842.346 1263.11C842.306 1262.15 841.868 1261.26 841.034 1260.46C840.159 1259.65 838.783 1258.81 836.904 1257.93C833.595 1256.35 831.336 1254.98 830.127 1253.83C828.879 1252.72 828.223 1251.41 828.16 1249.89C828.096 1248.37 828.536 1246.93 829.48 1245.57C830.424 1244.21 831.738 1243.09 833.423 1242.22C835.07 1241.39 836.853 1240.94 838.771 1240.86Z" fill="black"/>
</g>
<g id="s_5" style="mix-blend-mode:darken">
<path d="M803.488 1240.97C804.767 1241.02 805.942 1241.17 807.012 1241.41C808.045 1241.62 808.857 1241.83 809.448 1242.06C810.039 1242.28 810.413 1242.44 810.569 1242.52L810.731 1242.95C810.586 1243.54 810.394 1244.78 810.156 1246.65C809.917 1248.52 809.757 1249.96 809.675 1250.95L807.565 1251.17C807.675 1248.53 807.313 1246.65 806.479 1245.53C805.645 1244.42 804.169 1243.82 802.051 1243.73C800.532 1243.66 799.239 1243.95 798.172 1244.59C797.104 1245.22 796.55 1246.04 796.508 1247.04C796.466 1248.04 796.908 1248.96 797.833 1249.8C798.717 1250.67 800.507 1251.91 803.203 1253.5C805.432 1254.76 807.041 1256.01 808.03 1257.25C809.019 1258.49 809.483 1259.83 809.423 1261.27C809.356 1262.87 808.816 1264.29 807.803 1265.53C806.789 1266.81 805.427 1267.77 803.719 1268.42C802.008 1269.11 800.114 1269.41 798.036 1269.32C797.077 1269.28 796.161 1269.16 795.288 1268.97C794.414 1268.81 793.701 1268.64 793.148 1268.46C792.595 1268.27 792.24 1268.16 792.081 1268.11L791.974 1267.81C792.071 1267.41 792.289 1266.5 792.629 1265.07C792.967 1263.68 793.231 1262.17 793.42 1260.54L795.645 1260.45C795.64 1260.57 795.61 1260.81 795.555 1261.17C795.5 1261.53 795.466 1261.87 795.452 1262.19C795.392 1263.63 795.748 1264.68 796.521 1265.36C797.252 1266.07 798.476 1266.46 800.195 1266.53C801.553 1266.59 802.726 1266.32 803.712 1265.72C804.658 1265.12 805.15 1264.36 805.189 1263.44C805.229 1262.48 804.867 1261.56 804.103 1260.69C803.299 1259.81 801.997 1258.86 800.199 1257.82C797.034 1255.97 794.897 1254.42 793.789 1253.17C792.638 1251.96 792.095 1250.6 792.158 1249.08C792.222 1247.56 792.781 1246.16 793.836 1244.88C794.89 1243.61 796.293 1242.61 798.045 1241.88C799.755 1241.19 801.57 1240.89 803.488 1240.97Z" fill="black"/>
</g>
<g id="a_4" style="mix-blend-mode:darken">
<path d="M690.068 1220.89C693.17 1221.82 694.405 1223.89 693.775 1227.08L693.988 1227.21C695.782 1226.25 697.376 1225.54 698.767 1225.08C700.12 1224.61 701.084 1224.46 701.659 1224.64C703.803 1225.28 705.362 1226.49 706.336 1228.24C707.31 1230 707.485 1231.91 706.86 1233.98C706.525 1235.09 705.962 1235.99 705.172 1236.67C704.343 1237.34 703.429 1237.67 702.429 1237.66L690.614 1237.35L689.793 1239.86C689.215 1241.77 689.204 1243.4 689.762 1244.74C690.319 1246.07 691.401 1246.99 693.009 1247.47C694.082 1247.8 695.286 1247.89 696.624 1247.75C697.961 1247.61 699.343 1247.25 700.769 1246.68L701.004 1246.94L700.948 1249.62C698.836 1250.11 696.759 1250.48 694.716 1250.75C692.624 1251.03 691.176 1251.06 690.372 1250.81C687.882 1250.06 686.126 1248.82 685.102 1247.09C684.079 1245.36 683.919 1243.33 684.625 1240.99C684.879 1240.15 685.533 1238.47 686.587 1235.94C688.28 1231.86 689.3 1229.24 689.647 1228.09C689.901 1227.25 689.887 1226.54 689.605 1225.95C689.322 1225.36 688.817 1224.96 688.09 1224.74C687.477 1224.56 686.805 1224.5 686.073 1224.57C685.329 1224.68 684.708 1224.87 684.21 1225.14L683.683 1223.97C684.547 1223.19 685.577 1222.48 686.773 1221.84C687.92 1221.22 689.018 1220.9 690.068 1220.89ZM699.503 1228.25C698.775 1228.03 697.858 1228.02 696.75 1228.23C695.593 1228.47 694.49 1228.87 693.444 1229.43L691.387 1235.2L699.91 1235.2C701.125 1235.19 701.923 1234.56 702.304 1233.29C702.64 1232.18 702.553 1231.15 702.045 1230.21C701.499 1229.25 700.652 1228.6 699.503 1228.25Z" fill="black"/>
</g>
<g id="f_2" style="mix-blend-mode:darken">
<path d="M670.061 1216.84C667.823 1216.3 666.329 1216.97 665.578 1218.87L659.614 1233.93C659.298 1234.84 659.33 1235.52 659.71 1235.97C660.039 1236.44 660.876 1236.99 662.223 1237.61L662.314 1238.03L661.172 1239.78L657.582 1239.06L657.494 1239.29C656.227 1242.49 654.602 1245.07 652.618 1247.04C650.597 1248.99 648.388 1250.22 645.991 1250.74C643.556 1251.24 641.037 1250.97 638.434 1249.94C637.318 1249.5 636.325 1249.02 635.454 1248.5C634.546 1247.97 633.868 1247.51 633.421 1247.12C632.922 1246.75 632.613 1246.49 632.494 1246.36L632.581 1245.81C632.766 1245.67 633.185 1245.32 633.837 1244.76C634.436 1244.23 635.073 1243.6 635.746 1242.87L636.426 1242.95C636.531 1243.12 636.814 1243.49 637.277 1244.06C637.702 1244.62 638.339 1245.23 639.189 1245.91C640.001 1246.58 640.946 1247.13 642.024 1247.55C644.144 1248.39 646.064 1248.16 647.782 1246.86C649.486 1245.6 651.067 1243.24 652.526 1239.77L653.664 1237.06C651.73 1236.3 650.068 1235.66 648.677 1235.15C647.286 1234.64 646.36 1234.32 645.899 1234.18L645.798 1233.95L647.527 1231.21C647.921 1231.41 648.78 1231.79 650.104 1232.36C651.391 1232.91 652.965 1233.56 654.824 1234.29L661.696 1217.59C662.108 1216.55 662.194 1215.68 661.954 1214.98C661.662 1214.31 661.032 1213.78 660.065 1213.4C659.173 1213.04 658.44 1212.77 657.868 1212.59C657.258 1212.39 656.86 1212.26 656.674 1212.18L656.651 1211.91L657.991 1209.67C658.512 1209.88 659.453 1210.27 660.814 1210.85C662.175 1211.43 663.526 1211.99 664.864 1212.52C666.166 1213.04 667.457 1213.53 668.736 1213.99C669.993 1214.4 670.814 1214.66 671.201 1214.77L670.061 1216.84Z" fill="black"/>
</g>
<g id="f_3" style="mix-blend-mode:darken">
<path d="M637.379 1202.91C635.195 1202.19 633.649 1202.74 632.742 1204.56L625.539 1219.07C625.148 1219.95 625.123 1220.63 625.464 1221.11C625.752 1221.61 626.541 1222.23 627.831 1222.96L627.886 1223.39L626.602 1225.03L623.084 1224.02L622.978 1224.23C621.448 1227.31 619.613 1229.75 617.471 1231.55C615.294 1233.33 612.989 1234.37 610.557 1234.68C608.09 1234.97 605.602 1234.5 603.094 1233.25C602.019 1232.72 601.069 1232.16 600.245 1231.57C599.384 1230.97 598.748 1230.45 598.335 1230.02C597.869 1229.61 597.582 1229.33 597.474 1229.19L597.607 1228.65C597.803 1228.53 598.249 1228.21 598.945 1227.71C599.588 1227.23 600.275 1226.65 601.007 1225.99L601.678 1226.12C601.768 1226.3 602.019 1226.69 602.433 1227.3C602.81 1227.89 603.393 1228.56 604.182 1229.31C604.936 1230.04 605.832 1230.66 606.871 1231.18C608.913 1232.19 610.845 1232.12 612.666 1230.97C614.47 1229.86 616.244 1227.63 617.987 1224.3L619.348 1221.69C617.485 1220.77 615.882 1220 614.538 1219.37C613.195 1218.75 612.299 1218.35 611.851 1218.17L611.77 1217.93L613.722 1215.35C614.098 1215.58 614.922 1216.04 616.194 1216.71C617.43 1217.37 618.944 1218.15 620.736 1219.03L628.981 1202.96C629.479 1201.96 629.637 1201.1 629.456 1200.39C629.222 1199.69 628.639 1199.11 627.707 1198.65C626.847 1198.22 626.14 1197.89 625.584 1197.66C624.993 1197.41 624.608 1197.24 624.429 1197.16L624.428 1196.89L625.952 1194.76C626.453 1195.01 627.358 1195.48 628.666 1196.18C629.974 1196.87 631.273 1197.54 632.563 1198.18C633.817 1198.8 635.061 1199.4 636.297 1199.97C637.515 1200.48 638.312 1200.81 638.688 1200.95L637.379 1202.91Z" fill="black"/>
</g>
<g id="i_2" style="mix-blend-mode:darken">
<path d="M604.663 1185.09C603.47 1184.74 602.497 1184.69 601.741 1184.93C600.965 1185.21 600.307 1185.79 599.768 1186.68L591.874 1199.72C590.755 1201.57 590.828 1202.87 592.094 1203.64C592.334 1203.78 592.611 1203.91 592.926 1204C593.221 1204.13 593.412 1204.2 593.501 1204.21L592.146 1205.99C590.585 1205.32 588.948 1204.7 587.235 1204.13C585.488 1203.54 584.361 1203.17 583.854 1203L583.971 1202.23C584.714 1201.7 586.324 1199.65 588.802 1196.1C591.258 1192.59 593.709 1188.81 596.154 1184.77C596.755 1183.78 597.064 1182.96 597.08 1182.32C597.076 1181.71 596.749 1181.21 596.098 1180.81C595.722 1180.58 595.352 1180.38 594.99 1180.21C594.627 1180.04 594.377 1179.91 594.24 1179.83L594.262 1179.56L596.009 1177.6C596.296 1177.82 596.857 1178.21 597.692 1178.76C598.526 1179.31 599.457 1179.9 600.483 1180.52C601.373 1181.06 602.451 1181.6 603.718 1182.13C604.951 1182.64 605.759 1182.97 606.142 1183.11L604.663 1185.09ZM583.163 1210.86C583.95 1211.33 584.411 1211.96 584.545 1212.75C584.679 1213.53 584.528 1214.28 584.093 1215C583.596 1215.82 582.88 1216.34 581.946 1216.57C580.992 1216.84 580.087 1216.71 579.231 1216.19C578.444 1215.72 577.984 1215.09 577.85 1214.3C577.716 1213.52 577.867 1212.77 578.302 1212.05C578.799 1211.23 579.525 1210.69 580.48 1210.42C581.413 1210.19 582.308 1210.34 583.163 1210.86Z" fill="black"/>
</g>
<g id="n_2" style="mix-blend-mode:darken">
<path d="M567.771 1160.65C566.613 1160.2 565.646 1160.07 564.873 1160.25C564.076 1160.46 563.372 1160.99 562.761 1161.83L555.584 1171.3C554.408 1172.92 553.859 1174.42 553.936 1175.81C553.981 1177.18 554.65 1178.33 555.945 1179.27C556.98 1180.03 558.232 1180.51 559.7 1180.74C561.144 1181 562.494 1181.11 563.749 1181.09C568.907 1174.6 571.945 1170.72 572.862 1169.46C573.591 1168.46 573.979 1167.65 574.025 1167.04C574.049 1166.47 573.737 1165.95 573.089 1165.47C572.733 1165.22 572.382 1164.99 572.035 1164.78C571.688 1164.58 571.449 1164.43 571.32 1164.34L571.364 1164.07L573.317 1162.3C573.585 1162.55 574.128 1162.99 574.946 1163.63C575.764 1164.28 576.658 1164.95 577.629 1165.66C578.47 1166.27 579.432 1166.92 580.515 1167.61C581.588 1168.24 582.299 1168.66 582.646 1168.86L580.957 1170.67C579.901 1170.15 579.026 1169.96 578.332 1170.1C577.638 1170.24 576.962 1170.76 576.304 1171.67L567.699 1183.51C566.899 1184.61 566.525 1185.5 566.575 1186.18C566.602 1186.89 567.052 1187.57 567.926 1188.2L568.46 1188.59L568.464 1188.89L567.155 1190.38C565.599 1189.6 564.035 1188.86 562.465 1188.16C560.838 1187.48 559.795 1187.04 559.336 1186.85L559.327 1186.25C559.533 1186.11 559.936 1185.76 560.535 1185.2C561.112 1184.68 561.663 1184.09 562.189 1183.44L562.198 1183.22C556.722 1183 553.45 1182.5 552.382 1181.73C550.343 1180.25 549.136 1178.5 548.762 1176.5C548.388 1174.5 548.894 1172.54 550.281 1170.63C550.516 1170.31 551.695 1168.89 553.817 1166.38C556.521 1163.2 558.355 1160.95 559.319 1159.62C560.001 1158.68 560.377 1157.9 560.447 1157.25C560.494 1156.65 560.21 1156.12 559.595 1155.67C559.239 1155.41 558.887 1155.18 558.54 1154.98C558.193 1154.78 557.955 1154.63 557.825 1154.53L557.869 1154.27L559.774 1152.46C560.042 1152.71 560.569 1153.14 561.354 1153.76C562.14 1154.38 563.018 1155.04 563.989 1155.75C564.83 1156.36 565.86 1156.98 567.077 1157.62C568.263 1158.24 569.041 1158.63 569.412 1158.8L567.771 1160.65Z" fill="black"/>
</g>
<g id="i_3" style="mix-blend-mode:darken">
<path d="M546.791 1144.09C545.673 1143.55 544.721 1143.34 543.936 1143.45C543.124 1143.6 542.378 1144.06 541.699 1144.85L531.741 1156.39C530.329 1158.02 530.184 1159.32 531.304 1160.29C531.516 1160.47 531.769 1160.64 532.064 1160.79C532.332 1160.97 532.51 1161.07 532.596 1161.09L530.964 1162.61C529.535 1161.7 528.024 1160.81 526.431 1159.97C524.807 1159.09 523.759 1158.53 523.287 1158.28L523.53 1157.54C524.351 1157.14 526.279 1155.4 529.314 1152.31C532.323 1149.25 535.369 1145.94 538.453 1142.37C539.211 1141.49 539.652 1140.73 539.776 1140.1C539.873 1139.5 539.634 1138.95 539.059 1138.45C538.726 1138.16 538.395 1137.9 538.066 1137.67C537.737 1137.44 537.512 1137.27 537.391 1137.17L537.457 1136.91L539.506 1135.27C539.753 1135.53 540.241 1136.01 540.972 1136.69C541.703 1137.38 542.523 1138.11 543.431 1138.89C544.218 1139.57 545.192 1140.28 546.352 1141.02C547.482 1141.73 548.225 1142.19 548.58 1142.39L546.791 1144.09ZM521.295 1165.92C521.991 1166.52 522.34 1167.22 522.342 1168.01C522.343 1168.8 522.07 1169.52 521.521 1170.15C520.894 1170.88 520.1 1171.28 519.141 1171.35C518.156 1171.45 517.285 1171.17 516.528 1170.52C515.832 1169.92 515.483 1169.22 515.481 1168.43C515.479 1167.63 515.753 1166.92 516.302 1166.28C516.929 1165.56 517.735 1165.14 518.721 1165.04C519.68 1164.97 520.538 1165.26 521.295 1165.92Z" fill="black"/>
</g>
<g id="t_4" style="mix-blend-mode:darken">
<path d="M517.108 1113C519.011 1114.94 519.968 1116.69 519.98 1118.25C519.964 1119.83 519.012 1121.55 517.126 1123.39L506.581 1133.72C505.809 1134.48 505.434 1135.18 505.455 1135.83C505.477 1136.48 505.935 1137.29 506.83 1138.26L506.741 1138.69L505.245 1139.73C504.033 1139.29 502.764 1138.97 501.436 1138.76C500.053 1138.55 498.908 1138.41 498.004 1138.34C497.043 1138.27 496.421 1138.24 496.138 1138.24L495.642 1137.04C495.812 1136.93 496.197 1136.64 496.796 1136.16C497.395 1135.69 498.194 1135.05 499.193 1134.24L492.893 1128.06L492.896 1127.81L495.545 1125.97L501.504 1132.31C504.843 1129.43 508.514 1126.03 512.515 1122.11C513.972 1120.69 514.763 1119.44 514.888 1118.36C514.984 1117.26 514.431 1116.1 513.227 1114.87C512.807 1114.44 512.33 1114.07 511.796 1113.75C511.262 1113.43 510.798 1113.19 510.404 1113.01C509.981 1112.87 509.713 1112.77 509.601 1112.71L510.296 1111.19C510.606 1111.22 511.242 1111.32 512.202 1111.5C513.133 1111.66 514.121 1111.86 515.165 1112.13C516.152 1112.39 516.8 1112.68 517.108 1113Z" fill="black"/>
</g>
<g id="y" style="mix-blend-mode:darken">
<path d="M512.644 1088.04C512.848 1088.29 512.81 1089 512.529 1090.16C512.279 1091.3 512 1092 511.692 1092.26L511.177 1092.29C509.749 1090.57 507.699 1089.56 505.027 1089.28C502.36 1088.95 499.285 1089.31 495.804 1090.37C490.247 1098.97 486.157 1105.57 483.534 1110.18C482.992 1111.09 482.769 1111.95 482.864 1112.76C482.933 1113.53 483.283 1114.33 483.915 1115.16L483.807 1115.4L482.052 1116.39L478.923 1112.51C477.98 1111.37 477.003 1110.29 475.993 1109.25C474.957 1108.19 474.296 1107.52 474.01 1107.23L474.165 1106.95L475.828 1106.04C476.725 1107.06 477.42 1107.68 477.911 1107.9C478.345 1108.11 478.778 1108.04 479.21 1107.68C479.703 1107.27 480.74 1105.92 482.32 1103.63C483.875 1101.3 485.418 1098.96 486.947 1096.61C488.446 1094.28 489.414 1092.75 489.852 1092.02L489.699 1091.84C478.291 1095.31 472.218 1097.35 471.478 1097.96C470.676 1098.62 470.76 1099.54 471.729 1100.71L473.488 1102.84L473.38 1103.08L471.625 1104.07C471.426 1103.76 470.963 1103.11 470.234 1102.1C469.474 1101.12 468.699 1100.15 467.909 1099.2L464.612 1095.31L466.59 1094.21C467.274 1094.79 467.954 1095.11 468.63 1095.17C469.249 1095.23 470.162 1095.05 471.367 1094.62L490.278 1088.87C495.487 1087.26 499.453 1086.18 502.174 1085.65C504.896 1085.11 507.034 1085.03 508.59 1085.4C510.176 1085.75 511.528 1086.63 512.644 1088.04Z" fill="black"/>
</g>
<g id="p_4" style="mix-blend-mode:darken">
<path d="M471.071 1036.19C470.527 1035.49 470.051 1035.02 469.643 1034.8C469.215 1034.53 468.719 1034.47 468.154 1034.62C467.589 1034.76 466.804 1035.12 465.8 1035.7C464.345 1036.54 463.088 1037.24 462.028 1037.81L457.114 1040.57L441.629 1049.51C440.452 1050.19 439.748 1050.85 439.517 1051.5C439.252 1052.16 439.39 1052.95 439.93 1053.89L440.26 1054.46L440.142 1054.74L438.337 1055.57C437.235 1054.22 436.108 1052.91 434.956 1051.64C433.749 1050.35 432.974 1049.52 432.63 1049.17L432.866 1048.62C433.059 1048.55 433.49 1048.42 434.159 1048.22C434.773 1048 435.378 1047.77 435.972 1047.52L436.216 1047.1C432.084 1045.14 429.798 1043.78 429.358 1043.02C428.218 1041.05 427.676 1039.03 427.731 1036.96C427.752 1034.92 428.353 1033 429.536 1031.21C430.719 1029.42 432.384 1027.9 434.532 1026.66C436.992 1025.24 439.601 1024.52 442.359 1024.5C445.117 1024.48 447.69 1025.09 450.077 1026.35C452.43 1027.62 454.276 1029.42 455.616 1031.74C456.056 1032.5 456.461 1033.28 456.832 1034.09C457.217 1034.83 457.473 1035.36 457.598 1035.65L462.92 1032.51C464.514 1031.59 465.498 1030.81 465.872 1030.18C466.261 1029.5 466.175 1028.67 465.615 1027.7L464.543 1025.96L464.639 1025.77L466.854 1025.04L469.704 1029.98C470.424 1031.23 471.146 1032.36 471.869 1033.37C472.573 1034.35 473.033 1034.99 473.247 1035.28L471.071 1036.19ZM451.918 1031.93C450.578 1029.61 448.749 1028.25 446.43 1027.83C444.056 1027.4 441.501 1027.97 438.765 1029.55C437.033 1030.55 435.636 1031.77 434.576 1033.22C433.496 1034.63 432.85 1036.11 432.639 1037.66C432.407 1039.18 432.652 1040.56 433.372 1041.81C433.772 1042.5 434.504 1043.21 435.569 1043.94C436.599 1044.68 437.756 1045.28 439.038 1045.75C443.736 1043.4 448.7 1040.72 453.931 1037.7C453.808 1036.85 453.58 1035.89 453.248 1034.84C452.861 1033.77 452.418 1032.8 451.918 1031.93Z" fill="black"/>
</g>
<g id="h_4" style="mix-blend-mode:darken">
<path d="M441.582 1012.82C440.98 1011.82 440.368 1011.23 439.746 1011.03C439.107 1010.8 438.281 1010.93 437.268 1011.4L408.386 1025C407.409 1025.46 406.78 1025.95 406.499 1026.48C406.181 1027.03 406.184 1027.65 406.508 1028.33L407.045 1029.47L406.984 1029.77L405.144 1030.37C404.421 1029.2 403.548 1027.91 402.526 1026.49C401.468 1025.09 400.556 1023.95 399.789 1023.07L400.342 1022.42C400.859 1022.48 402.914 1021.82 406.508 1020.44C410.085 1019.02 414.441 1017.2 419.576 1014.96C414.811 1012.16 412.123 1010.11 411.509 1008.8C410.402 1006.45 410.158 1004.34 410.775 1002.45C411.393 1000.57 412.805 999.111 415.013 998.072C415.737 997.731 417.461 997.074 420.186 996.101C424.574 994.435 427.275 993.363 428.288 992.886C429.338 992.392 430.048 991.881 430.418 991.353C430.753 990.842 430.758 990.243 430.434 989.555L429.432 987.706L429.598 987.495L432.137 986.831C433.152 989.271 433.856 990.907 434.247 991.739C434.929 993.187 436.023 994.949 437.53 997.025L435.202 997.855C434.402 996.905 433.619 996.323 432.855 996.108C432.054 995.91 431.184 996.032 430.243 996.475L419.34 1001.21C417.53 1002.06 416.324 1003.11 415.722 1004.37C415.102 1005.59 415.133 1006.92 415.814 1008.37C416.24 1009.28 417.058 1010.26 418.267 1011.33C419.459 1012.36 420.718 1013.2 422.045 1013.86C426.149 1012.06 430.572 1010.05 435.314 1007.82C436.436 1007.29 437.164 1006.77 437.498 1006.26C437.796 1005.76 437.775 1005.15 437.434 1004.43L436.431 1002.58L436.598 1002.37L439.162 1001.76C440.228 1004.31 440.949 1005.98 441.324 1006.78C442.056 1008.33 442.935 1010.11 443.961 1012.1L441.582 1012.82Z" fill="black"/>
</g>
<g id="o_5" style="mix-blend-mode:darken">
<path d="M425.36 967.916C426.155 970.053 426.334 972.142 425.898 974.182C425.461 976.222 424.48 978.059 422.954 979.693C421.377 981.304 419.37 982.563 416.933 983.469C414.308 984.445 411.7 984.775 409.107 984.459C406.463 984.12 404.153 983.186 402.176 981.659C400.163 980.146 398.703 978.171 397.796 975.734C397.016 973.635 396.843 971.565 397.28 969.525C397.702 967.448 398.702 965.603 400.279 963.993C401.805 962.358 403.787 961.088 406.224 960.182C408.848 959.206 411.482 958.887 414.127 959.227C416.719 959.543 419.023 960.457 421.036 961.97C423.012 963.497 424.454 965.479 425.36 967.916ZM422.019 967.366C421.238 965.267 419.774 963.912 417.627 963.302C415.442 962.707 412.887 962.952 409.963 964.04C407.751 964.863 405.908 965.932 404.435 967.248C402.924 968.578 401.911 970.043 401.396 971.643C400.867 973.205 400.889 974.755 401.461 976.292C402.241 978.392 403.724 979.739 405.909 980.335C408.094 980.931 410.667 980.678 413.629 979.577C415.841 978.754 417.684 977.685 419.157 976.368C420.631 975.052 421.632 973.613 422.16 972.051C422.652 970.503 422.604 968.941 422.019 967.366Z" fill="black"/>
</g>
<g id="t_5" style="mix-blend-mode:darken">
<path d="M413.398 930.923C414.13 933.543 414.126 935.538 413.387 936.907C412.609 938.287 410.949 939.332 408.406 940.042L394.19 944.011C393.15 944.301 392.482 944.737 392.188 945.318C391.893 945.898 391.904 946.83 392.22 948.112L391.938 948.44L390.124 948.635C389.273 947.668 388.316 946.772 387.255 945.947C386.145 945.094 385.21 944.421 384.449 943.928C383.639 943.406 383.111 943.076 382.864 942.937L383.004 941.652C383.207 941.637 383.686 941.566 384.439 941.438C385.193 941.311 386.202 941.133 387.467 940.904L384.922 932.458L385.047 932.236L388.255 931.901L390.421 940.329C394.734 939.415 399.588 938.206 404.982 936.7C406.946 936.151 408.242 935.436 408.868 934.555C409.484 933.636 409.56 932.348 409.097 930.691C408.936 930.114 408.698 929.557 408.382 929.022C408.067 928.487 407.778 928.049 407.517 927.707C407.216 927.375 407.031 927.157 406.96 927.052L408.301 926.055C408.558 926.232 409.064 926.631 409.819 927.251C410.562 927.832 411.328 928.491 412.115 929.226C412.852 929.934 413.28 930.5 413.398 930.923Z" fill="black"/>
</g>
<g id="o_6" style="mix-blend-mode:darken">
<path d="M406.216 900.061C406.643 902.301 406.472 904.39 405.701 906.329C404.931 908.267 403.657 909.915 401.88 911.272C400.056 912.597 397.867 913.504 395.313 913.991C392.563 914.516 389.936 914.406 387.432 913.662C384.881 912.886 382.759 911.581 381.065 909.745C379.332 907.918 378.222 905.727 377.735 903.173C377.315 900.973 377.49 898.903 378.261 896.965C379.024 894.987 380.317 893.335 382.141 892.01C383.918 890.653 386.084 889.731 388.638 889.243C391.388 888.719 394.039 888.844 396.589 889.62C399.093 890.364 401.211 891.65 402.945 893.478C404.638 895.313 405.729 897.507 406.216 900.061ZM403.013 898.962C402.594 896.762 401.376 895.182 399.361 894.222C397.306 893.271 394.746 893.087 391.681 893.672C389.363 894.114 387.368 894.861 385.695 895.913C383.984 896.972 382.741 898.248 381.966 899.739C381.185 901.192 380.947 902.723 381.255 904.334C381.674 906.534 382.912 908.111 384.966 909.062C387.021 910.014 389.601 910.194 392.705 909.602C395.023 909.16 397.018 908.413 398.691 907.361C400.363 906.309 401.59 905.056 402.372 903.604C403.114 902.16 403.328 900.612 403.013 898.962Z" fill="black"/>
</g>
<g id="v" style="mix-blend-mode:darken">
<path d="M399.549 795.502C397.595 795.98 393.768 796.942 388.066 798.387C382.326 799.789 378.356 800.782 376.155 801.365C374.196 801.923 373.113 803.217 372.905 805.248L372.658 805.353L370.704 804.869L371.077 799.903C371.172 798.386 371.205 796.905 371.176 795.46C371.147 794.016 371.125 793.092 371.11 792.691L371.417 792.59L373.25 793.066C373.205 794.426 373.286 795.373 373.492 795.907C373.662 796.398 374.026 796.662 374.585 796.697C375.304 796.742 378.203 796.203 383.284 795.08C388.324 793.954 391.739 793.187 393.528 792.779L393.544 792.539L385.727 788.741C383.16 787.497 380.961 786.457 379.13 785.62C377.298 784.784 376.143 784.35 375.664 784.32C375.145 784.287 374.773 784.464 374.549 784.851C374.287 785.195 374.125 785.847 374.065 786.805L373.922 789.08L373.548 789.297L371.71 788.881L372.173 782.477L372.422 777.563L374.611 778.122C374.678 778.968 374.976 779.648 375.505 780.162C376.034 780.676 377.153 781.368 378.861 782.237L398.742 792.085L399.549 795.502Z" fill="black"/>
</g>
<g id="s_6" style="mix-blend-mode:darken">
<path d="M402.868 759.754C402.681 761.021 402.41 762.173 402.055 763.213C401.744 764.218 401.446 765.003 401.161 765.567C400.875 766.132 400.681 766.487 400.579 766.634L400.137 766.75C399.561 766.544 398.355 766.224 396.518 765.791C394.682 765.359 393.272 765.049 392.289 764.864L392.299 762.742C394.91 763.128 396.815 762.964 398.012 762.252C399.209 761.539 399.962 760.134 400.272 758.037C400.494 756.533 400.344 755.217 399.823 754.089C399.303 752.961 398.548 752.323 397.558 752.177C396.569 752.031 395.609 752.375 394.677 753.207C393.712 753.995 392.295 755.646 390.428 758.16C388.947 760.246 387.537 761.716 386.198 762.569C384.859 763.423 383.478 763.744 382.053 763.534C380.47 763.3 379.116 762.615 377.99 761.478C376.824 760.336 376.008 758.881 375.541 757.114C375.035 755.341 374.933 753.426 375.237 751.368C375.377 750.418 375.591 749.52 375.878 748.673C376.125 747.82 376.369 747.128 376.609 746.597C376.849 746.066 377 745.725 377.063 745.573L377.378 745.498C377.762 745.635 378.646 745.948 380.029 746.435C381.373 746.917 382.848 747.336 384.453 747.695L384.306 749.917C384.188 749.9 383.953 749.845 383.603 749.753C383.253 749.661 382.919 749.591 382.603 749.544C381.178 749.334 380.091 749.578 379.341 750.276C378.557 750.928 378.04 752.105 377.788 753.807C377.59 755.152 377.737 756.346 378.23 757.39C378.728 758.393 379.433 758.962 380.343 759.097C381.293 759.237 382.241 758.973 383.189 758.304C384.143 757.596 385.229 756.402 386.448 754.722C388.622 751.768 390.388 749.804 391.745 748.832C393.068 747.815 394.481 747.417 395.984 747.639C397.488 747.861 398.82 748.563 399.98 749.745C401.139 750.927 401.989 752.427 402.53 754.246C403.036 756.019 403.149 757.855 402.868 759.754Z" fill="black"/>
</g>
<g id="c_2" style="mix-blend-mode:darken">
<path d="M410.124 721.868C409.257 725.567 407.394 728.253 404.537 729.925C401.68 731.596 398.284 731.971 394.351 731.048C391.586 730.4 389.211 729.227 387.227 727.529C385.212 725.782 383.8 723.746 382.99 721.42C382.15 719.045 382.027 716.592 382.62 714.061C382.876 712.97 383.201 711.937 383.594 710.961C383.987 709.985 384.354 709.209 384.695 708.631C385.006 708.006 385.219 707.624 385.333 707.487L385.783 707.407C385.969 707.492 386.409 707.718 387.103 708.087C387.768 708.407 388.681 708.806 389.842 709.284C390.965 709.752 392.203 710.166 393.557 710.525L393.17 712.961L391.359 712.536C389.919 712.198 388.665 712.377 387.598 713.071C386.501 713.718 385.784 714.762 385.446 716.203C384.889 718.578 385.316 720.609 386.728 722.297C388.101 723.974 390.346 725.179 393.461 725.909C396.849 726.704 399.701 726.633 402.016 725.697C404.301 724.713 405.731 722.994 406.307 720.541C406.535 719.567 406.627 718.562 406.583 717.524C406.499 716.478 406.399 715.591 406.282 714.865C406.126 714.13 406.007 713.671 405.927 713.488L406.126 713.165L408.088 712.947C408.218 713.265 408.486 713.965 408.89 715.045C409.303 716.087 409.66 717.28 409.961 718.625C410.271 719.93 410.325 721.011 410.124 721.868Z" fill="black"/>
</g>
<g id="o_7" style="mix-blend-mode:darken">
<path d="M418.807 690.903C418.102 693.071 416.945 694.819 415.336 696.147C413.727 697.475 411.817 698.305 409.606 698.638C407.369 698.921 405.014 698.661 402.542 697.857C399.879 696.992 397.629 695.63 395.794 693.772C393.932 691.863 392.702 689.697 392.101 687.273C391.463 684.836 391.546 682.382 392.349 679.909C393.041 677.779 394.192 676.05 395.801 674.722C397.422 673.356 399.351 672.532 401.588 672.249C403.799 671.916 406.141 672.151 408.614 672.955C411.277 673.82 413.539 675.207 415.4 677.116C417.236 678.974 418.473 681.121 419.111 683.558C419.712 685.982 419.61 688.43 418.807 690.903ZM416.53 688.397C417.222 686.266 416.916 684.295 415.612 682.484C414.27 680.66 412.115 679.266 409.148 678.301C406.903 677.572 404.795 677.266 402.823 677.382C400.812 677.486 399.108 678.005 397.711 678.939C396.327 679.834 395.381 681.062 394.874 682.622C394.182 684.752 394.507 686.73 395.849 688.554C397.191 690.378 399.365 691.778 402.37 692.754C404.614 693.484 406.723 693.79 408.695 693.674C410.668 693.558 412.346 693.052 413.731 692.156C415.078 691.247 416.01 689.994 416.53 688.397Z" fill="black"/>
</g>
<g id="d" style="mix-blend-mode:darken">
<path d="M435.87 646.25C434.661 649.127 432.662 650.217 429.874 649.522L429.545 649.84C430.551 654.775 430.891 657.63 430.566 658.405C429.682 660.506 428.42 662.167 426.779 663.387C425.102 664.591 423.192 665.263 421.05 665.404C418.908 665.545 416.694 665.135 414.408 664.174C411.789 663.073 409.63 661.45 407.929 659.303C406.244 657.119 405.197 654.705 404.79 652.06C404.362 649.364 404.667 646.78 405.705 644.309C406.201 643.129 406.81 641.888 407.531 640.586L398.349 636.726C396.358 635.889 395.076 636.153 394.502 637.517C394.394 637.775 394.314 638.067 394.264 638.393C394.177 638.704 394.136 638.904 394.142 638.993L392.188 637.912C392.634 636.233 393.029 634.468 393.373 632.617C393.717 630.766 393.935 629.577 394.026 629.051L394.884 629.022C395.34 629.691 399.076 631.695 406.09 635.034C413.12 638.336 420.672 641.684 428.748 645.079C429.559 645.42 430.271 645.481 430.884 645.261C431.497 645.041 431.951 644.581 432.245 643.881C432.462 643.364 432.579 642.828 432.596 642.271C432.592 641.662 432.542 641.163 432.444 640.775C432.363 640.35 432.3 640.085 432.258 639.981L433.468 639.578C433.606 639.766 433.895 640.213 434.336 640.919C434.74 641.61 435.119 642.463 435.473 643.48C435.842 644.46 435.974 645.383 435.87 646.25ZM427.343 656.008C427.668 655.234 427.796 654.311 427.725 653.24C427.67 652.132 427.553 651.172 427.374 650.359C427.158 649.531 427.015 648.993 426.945 648.747L411.79 642.376C411.67 642.456 411.424 642.678 411.054 643.043C410.647 643.393 410.18 643.934 409.655 644.668C409.145 645.365 408.681 646.211 408.262 647.207C407.224 649.677 407.25 651.988 408.342 654.139C409.412 656.238 411.404 657.9 414.317 659.124C416.161 659.899 417.971 660.291 419.746 660.3C421.537 660.272 423.107 659.89 424.457 659.156C425.823 658.385 426.784 657.336 427.343 656.008Z" fill="black"/>
</g>
<g id="e" style="mix-blend-mode:darken">
<path d="M447.32 623.216C446.171 625.414 444.674 627.113 442.827 628.315C440.945 629.497 438.877 630.086 436.622 630.081C434.333 630.058 432.036 629.444 429.732 628.239C427.357 626.997 425.401 625.298 423.866 623.141C422.349 620.949 421.443 618.625 421.147 616.168C420.852 613.712 421.241 611.456 422.316 609.4C423.669 606.812 425.353 605.187 427.369 604.526C429.385 603.865 431.651 604.192 434.168 605.508C435.196 606.045 436.009 606.605 436.607 607.189L436.883 608.213L429.211 622.889C432.631 624.722 435.642 625.438 438.243 625.038C440.828 624.584 442.778 623.098 444.094 620.581C445.132 618.596 445.713 616.147 445.837 613.233L446.11 612.969L447.958 613.191C448.212 614.949 448.304 616.802 448.233 618.751C448.18 620.664 447.876 622.153 447.32 623.216ZM431.908 611.773C432.115 611.205 432.176 610.785 432.092 610.515C432.007 610.246 431.699 609.972 431.167 609.694C429.749 608.952 428.464 608.777 427.312 609.168C426.178 609.523 425.241 610.41 424.5 611.827C423.629 613.494 423.445 615.226 423.95 617.024C424.472 618.787 425.608 620.328 427.355 621.648L431.908 611.773Z" fill="black"/>
</g>
<g id="h_5" style="mix-blend-mode:darken">
<path d="M495.491 546.038C496.178 545.096 496.49 544.301 496.428 543.652C496.392 542.975 495.959 542.261 495.126 541.511L471.405 520.153C470.602 519.43 469.902 519.042 469.305 518.988C468.677 518.908 468.109 519.15 467.601 519.715L466.758 520.651L466.463 520.709L465.197 519.246C465.988 518.128 466.84 516.823 467.754 515.331C468.637 513.812 469.334 512.529 469.846 511.483L470.667 511.737C470.806 512.24 472.209 513.88 474.876 516.657C477.569 519.405 480.942 522.712 484.997 526.578C485.73 521.101 486.578 517.828 487.541 516.758C489.281 514.826 491.138 513.78 493.112 513.62C495.086 513.459 496.98 514.196 498.793 515.828C499.388 516.364 500.662 517.699 502.615 519.834C505.852 523.233 507.886 525.307 508.719 526.057C509.581 526.833 510.327 527.29 510.957 527.427C511.558 527.537 512.112 527.309 512.621 526.745L513.937 525.104L514.195 525.175L515.791 527.258C513.936 529.14 512.7 530.422 512.085 531.106C511.014 532.295 509.814 533.987 508.484 536.181L506.817 534.356C507.382 533.25 507.616 532.303 507.518 531.515C507.39 530.701 506.94 529.945 506.167 529.25L497.579 521.033C496.093 519.694 494.654 518.991 493.263 518.922C491.898 518.824 490.68 519.369 489.61 520.558C488.941 521.301 488.349 522.437 487.834 523.965C487.346 525.463 487.056 526.951 486.963 528.429C490.212 531.516 493.784 534.813 497.678 538.319C498.599 539.149 499.36 539.618 499.961 539.729C500.532 539.812 501.085 539.556 501.62 538.962L502.936 537.321L503.195 537.392L504.751 539.52C502.815 541.491 501.552 542.803 500.964 543.457C499.813 544.735 498.518 546.234 497.078 547.952L495.491 546.038Z" fill="black"/>
</g>
<g id="a_5" style="mix-blend-mode:darken">
<path d="M537.518 507.187C535.156 509.405 532.75 509.443 530.298 507.3L530.082 507.42C530.018 509.456 529.837 511.191 529.537 512.624C529.266 514.031 528.912 514.939 528.475 515.35C526.842 516.883 525.021 517.633 523.013 517.598C521.005 517.563 519.262 516.758 517.783 515.184C516.989 514.338 516.495 513.403 516.301 512.378C516.136 511.326 516.307 510.369 516.816 509.508L522.99 499.43L521.227 497.464C519.858 496.006 518.454 495.184 517.017 494.997C515.58 494.811 514.249 495.292 513.024 496.442C512.207 497.209 511.525 498.206 510.977 499.434C510.429 500.662 510.047 502.037 509.829 503.558L509.487 503.632L507.196 502.244C507.827 500.17 508.541 498.183 509.336 496.284C510.133 494.328 510.838 493.063 511.45 492.488C513.346 490.708 515.298 489.807 517.308 489.785C519.318 489.764 521.158 490.642 522.828 492.421C523.431 493.062 524.561 494.47 526.219 496.645C528.91 500.153 530.666 502.345 531.488 503.22C532.09 503.861 532.716 504.207 533.365 504.255C534.015 504.304 534.616 504.068 535.17 503.548C535.637 503.11 536.022 502.556 536.326 501.886C536.603 501.188 536.75 500.555 536.768 499.99L538.037 500.115C538.285 501.255 538.387 502.503 538.344 503.86C538.303 505.16 538.028 506.269 537.518 507.187ZM526.425 511.678C526.979 511.157 527.443 510.365 527.816 509.302C528.191 508.182 528.397 507.028 528.434 505.841L524.463 501.174L520.199 508.553C519.6 509.61 519.752 510.619 520.656 511.581C521.45 512.427 522.384 512.866 523.458 512.9C524.562 512.907 525.551 512.499 526.425 511.678Z" fill="black"/>
</g>
<g id="i_4" style="mix-blend-mode:darken">
<path d="M552.629 491.077C553.37 490.081 553.758 489.187 553.793 488.393C553.803 487.569 553.485 486.749 552.839 485.934L543.373 473.99C542.031 472.298 540.781 471.911 539.621 472.83C539.401 473.004 539.191 473.222 538.99 473.483C538.764 473.713 538.632 473.869 538.594 473.95L537.403 472.061C538.571 470.83 539.72 469.51 540.851 468.104C542.013 466.672 542.761 465.748 543.094 465.331L543.776 465.709C544.016 466.591 545.367 468.811 547.831 472.371C550.27 475.899 552.956 479.513 555.888 483.212C556.608 484.121 557.268 484.695 557.866 484.935C558.44 485.144 559.025 485.012 559.621 484.54C559.965 484.267 560.282 483.991 560.571 483.711C560.859 483.431 561.066 483.241 561.192 483.142L561.435 483.255L562.661 485.576C562.354 485.768 561.796 486.159 560.988 486.749C560.179 487.338 559.305 488.006 558.364 488.751C557.549 489.397 556.671 490.221 555.73 491.223C554.819 492.199 554.232 492.843 553.969 493.154L552.629 491.077ZM535.969 461.944C535.248 462.515 534.497 462.727 533.717 462.58C532.937 462.433 532.286 462.03 531.764 461.372C531.168 460.62 530.925 459.766 531.035 458.811C531.121 457.824 531.556 457.02 532.339 456.399C533.06 455.827 533.811 455.615 534.591 455.762C535.371 455.91 536.022 456.312 536.544 456.971C537.14 457.723 537.396 458.593 537.31 459.579C537.199 460.535 536.752 461.323 535.969 461.944Z" fill="black"/>
</g>
<g id="k_2" style="mix-blend-mode:darken">
<path d="M574.406 473.882C575.183 473.173 575.645 472.53 575.79 471.953C575.913 471.343 575.819 470.733 575.51 470.122C575.233 469.49 574.641 468.49 573.734 467.124L557.431 442.586C556.236 440.787 555.022 440.297 553.789 441.116C553.556 441.271 553.328 441.47 553.106 441.714C552.861 441.925 552.717 442.069 552.672 442.146C552.54 441.946 552.374 441.624 552.175 441.18L551.644 440.164C552.944 439.013 554.249 437.761 555.56 436.41C556.872 435.058 557.71 434.189 558.077 433.801L558.809 434.251C558.819 435.061 560.832 438.814 564.848 445.51C568.898 452.184 573.402 459.252 578.361 466.715C579.047 467.748 579.667 468.393 580.222 468.649C580.754 468.871 581.353 468.761 582.019 468.319C582.386 468.075 582.725 467.826 583.036 467.571C583.347 467.317 583.569 467.145 583.702 467.057L583.935 467.19L584.913 469.638C584.591 469.804 583.986 470.158 583.097 470.7C582.209 471.242 581.265 471.845 580.265 472.51C579.399 473.085 578.455 473.76 577.433 474.535C576.467 475.321 575.828 475.842 575.517 476.097L574.406 473.882ZM574.663 458.223L576.825 448.574C577.004 447.831 577.099 447.288 577.111 446.944C577.1 446.567 577.017 446.262 576.862 446.028C576.619 445.662 576.225 445.539 575.681 445.66C575.138 445.782 574.383 446.163 573.416 446.805L573.1 446.655L572.587 444.907C572.954 444.663 573.631 444.237 574.62 443.628C575.641 442.998 576.668 442.339 577.701 441.653C578.501 441.122 579.395 440.48 580.383 439.727C581.35 438.941 581.972 438.431 582.25 438.199L582.566 438.349L583.195 440.164C582.095 441.471 581.221 443.156 580.575 445.219C579.961 447.259 579.33 449.887 578.682 453.104C578.682 453.104 578.508 453.963 578.162 455.682L587.892 458.942C589.998 459.656 591.729 460.019 593.082 460.032C594.435 460.045 595.629 459.709 596.661 459.023L596.977 459.173L597.64 460.822C597.407 461.121 596.89 461.68 596.09 462.5C595.312 463.353 594.773 463.879 594.473 464.078C593.974 464.41 593.28 464.631 592.392 464.741C591.715 464.806 590.933 464.749 590.046 464.57C589.17 464.336 587.956 463.918 586.404 463.317L575.094 459.089L574.663 458.223Z" fill="black"/>
</g>
<g id="u" style="mix-blend-mode:darken">
<path d="M597.438 436.931C596.397 435.038 595.228 434.448 593.931 435.161C593.686 435.296 593.442 435.475 593.2 435.7C592.939 435.889 592.783 436.02 592.732 436.094L591.873 434.033C593.125 433.071 594.443 431.981 595.827 430.763C597.193 429.511 598.092 428.697 598.525 428.322L599.187 428.779C599.338 429.883 600.159 432.125 601.652 435.504C603.144 438.883 604.728 442.097 606.405 445.147C608.293 448.582 610.64 449.529 613.444 447.987C614.496 447.409 615.342 446.624 615.984 445.632C616.606 444.605 617.331 443.226 618.158 441.493L611.452 429.294C610.874 428.243 610.277 427.613 609.66 427.404C609.043 427.195 608.244 427.361 607.263 427.9L606.03 428.647L605.199 426.638C606.626 425.58 608.084 424.413 609.574 423.138C611.064 421.862 612.025 421.037 612.458 420.662L613.12 421.12C613.248 422.099 614.172 424.444 615.892 428.154C617.648 431.845 619.681 435.794 621.994 440C622.418 440.771 622.938 441.261 623.555 441.47C624.172 441.679 624.813 441.6 625.479 441.234C625.97 440.964 626.395 440.616 626.754 440.19C627.129 439.71 627.399 439.288 627.564 438.923C627.764 438.54 627.88 438.294 627.911 438.185L629.11 438.621C629.085 438.909 628.993 439.53 628.833 440.485C628.709 441.421 628.469 442.397 628.115 443.413C627.796 444.41 627.374 445.053 626.848 445.342C624.009 446.903 621.668 446.341 619.827 443.656L619.506 443.696C618.537 445.917 617.59 447.807 616.666 449.365C615.778 450.903 615.088 451.808 614.597 452.077C612.354 453.311 610.33 453.739 608.525 453.362C606.755 452.965 605.33 451.786 604.251 449.823L597.438 436.931Z" fill="black"/>
</g>
<g id="l" style="mix-blend-mode:darken">
<path d="M709.632 410.807C710.637 410.219 711.293 409.637 711.6 409.063C711.946 408.478 712.073 407.847 711.981 407.169C711.928 406.48 711.703 405.361 711.305 403.811L703.979 375.277C703.67 374.076 703.326 373.297 702.945 372.94C702.564 372.584 701.948 372.515 701.096 372.734C700.902 372.784 700.466 372.937 699.789 373.193L699.585 373.122L699.31 371.086C702.445 369.786 705.168 368.488 707.478 367.192L708.021 367.858C707.764 368.627 708.441 372.872 710.052 380.593C711.701 388.305 713.62 396.423 715.809 404.947C716.107 406.109 716.476 406.902 716.915 407.326C717.355 407.75 717.942 407.868 718.678 407.679L720.683 407.041L720.859 407.243L721.035 409.861C718.448 410.402 716.709 410.786 715.818 411.015C714.501 411.353 712.565 412.098 710.011 413.249L709.632 410.807Z" fill="black"/>
</g>
<g id="o_8" style="mix-blend-mode:darken">
<path d="M748.439 404.81C746.19 405.19 744.105 404.975 742.183 404.164C740.261 403.353 738.64 402.045 737.321 400.24C736.034 398.389 735.174 396.181 734.74 393.618C734.273 390.857 734.438 388.233 735.234 385.745C736.063 383.211 737.413 381.117 739.283 379.462C741.147 377.767 743.36 376.703 745.924 376.27C748.132 375.896 750.198 376.115 752.12 376.926C754.081 377.73 755.706 379.057 756.992 380.909C758.312 382.714 759.188 384.898 759.622 387.462C760.089 390.223 759.908 392.87 759.079 395.404C758.283 397.891 756.953 399.982 755.089 401.677C753.219 403.332 751.002 404.376 748.439 404.81ZM749.605 401.631C751.813 401.257 753.418 400.073 754.42 398.078C755.414 396.044 755.651 393.489 755.131 390.412C754.738 388.085 754.032 386.075 753.016 384.381C751.992 382.647 750.743 381.377 749.268 380.572C747.833 379.76 746.306 379.491 744.689 379.764C742.481 380.138 740.879 381.342 739.884 383.376C738.89 385.411 738.656 387.986 739.183 391.102C739.576 393.428 740.282 395.439 741.298 397.133C742.315 398.827 743.541 400.08 744.977 400.892C746.406 401.665 747.948 401.911 749.605 401.631Z" fill="black"/>
</g>
<g id="l_2" style="mix-blend-mode:darken">
<path d="M768.416 398.162C769.505 397.749 770.249 397.285 770.647 396.77C771.085 396.252 771.316 395.65 771.339 394.966C771.401 394.278 771.366 393.137 771.232 391.543L768.767 362.186C768.663 360.95 768.453 360.125 768.137 359.71C767.821 359.295 767.225 359.124 766.348 359.198C766.149 359.215 765.694 359.293 764.983 359.433L764.794 359.328L764.862 357.276C768.17 356.516 771.071 355.69 773.565 354.799L773.989 355.546C773.608 356.26 773.567 360.559 773.868 368.441C774.209 376.32 774.747 384.644 775.483 393.414C775.584 394.609 775.815 395.453 776.178 395.944C776.54 396.436 777.1 396.65 777.857 396.586L779.94 396.291L780.079 396.52L779.817 399.131C777.176 399.232 775.397 399.321 774.481 399.398C773.125 399.512 771.093 399.924 768.383 400.633L768.416 398.162Z" fill="black"/>
</g>
</g>
</svg>
